<?xml version="1.0" encoding="utf-8" ?><svg xmlns="http://www.w3.org/2000/svg" xmlns:xlink="http://www.w3.org/1999/xlink" width="110" height="151" viewBox="0 0 110 151"><path fill="#443418" transform="scale(0.127534 0.127534)" d="M175.922 60.3725C166.46 50.17 173.487 40.9714 184.658 38.2151C200.406 34.3294 218.083 49.5565 231.047 57.3101C238.335 57.8697 251.533 55.4296 261.99 55.6983C291.747 54.9927 321.318 55.2657 351.079 55.5918C367.501 55.7717 386.855 54.6918 402.788 55.5175C409.169 61.6405 414.919 70.3889 421.517 75.1725C437.871 75.4294 443.046 72.769 457.139 71.9293C462.895 71.601 463.214 70.1882 468.346 68.906C474.93 69.2963 476.046 70.2526 480.457 75.194L480.56 75.7273L482.144 75.1332C480.072 69.758 478.012 61.3447 476.515 55.5889C483.872 66.5909 491.134 77.0212 498.954 87.685C502.038 93.1286 498.206 105.083 503.694 109.226C518.155 120.142 534.412 136.242 549.823 145.251C566.014 154.715 564.863 150.844 576.386 167.943C583.035 161.402 592.778 151.409 601.47 147.888C612.383 149.623 619.94 153.627 626.536 162.642C636.004 175.583 634.909 194.657 654.345 197.375C658.499 197.956 662.702 198.497 666.915 198.99C666.328 193.338 665.24 185.2 665.01 179.647C685.914 196.013 695.986 218.798 704.005 242.829C706.398 249.998 714.451 257.56 714.55 266.233C715.048 274.774 716.576 294.458 714.176 301.999C710.444 313.722 706.377 318.592 705.858 332.086C716.076 349.187 736.689 361.537 730.235 385.646C728.782 391.072 719.784 408.296 716.413 412.976C709.908 422.007 688.585 436.297 677.876 438.493C664.7 433.269 659.328 421.001 649.441 412.152C644.422 407.661 634.14 402.677 628.214 398.627C623.434 395.361 617.717 390.939 612.927 388.024C609.458 385.913 600.221 385.112 595.99 383.425C586.918 379.806 575.25 371.225 565.716 369.953C577.988 383.474 590.588 396.551 602.08 410.81C619.261 432.13 634.468 455.208 648.052 478.974C653.956 489.303 659.769 499.562 665.99 509.64C669.102 510.416 674.767 511.651 677.528 512.854C686.139 515.758 690.685 518.405 695.111 526.289L694.572 548.704C702.621 555.41 733.233 581.832 719.83 592.806L718.923 593.485C719.031 594.334 719.085 594.983 719.295 595.82C728.698 608.933 732.93 622.459 739.413 636.542C750.74 661.152 762.7 686.489 771.807 711.993C777.844 728.899 782.64 746.715 788.644 763.74C791.057 770.581 792.524 778.975 795.196 786.033C798.948 788.913 803.244 791.448 803.587 796.584C804.095 804.167 802.888 810.184 806.45 817.274C808.145 820.649 807.252 822.457 804.816 824.894C803.959 827.893 804.847 830.233 804.554 833.234C804.332 835.497 802.262 834.62 802.446 836.58C803.957 851.854 806.388 867.128 809.087 882.241C810.479 890.038 810.036 898.716 811.155 906.431C812.88 918.324 813.414 928.686 813.19 940.684C812.95 953.556 813.723 966.48 812.084 979.339C811.371 986.421 811.934 991.669 810 998.554C806.755 1010.11 811.278 1027.97 797.682 1034.7C793.085 1036.98 787.338 1035.46 785.394 1030.38C785.344 1026.59 785.699 1024.16 786.198 1020.37C779.878 1024.97 775.181 1033 769.685 1039.07C751.278 1059.39 729.066 1092.18 698.041 1090.15C686.511 1088.95 674.03 1078.47 661.929 1075.6C647.337 1072.14 637.221 1076.38 623.26 1075.77C618.632 1072.7 615.246 1069.43 612.391 1064.56C610.997 1060.85 610.866 1060.19 610.549 1056.22C610.485 1053.96 610.34 1050.6 610.694 1048.39C611.34 1044.36 615.494 1035.78 614.503 1032.09C611.996 1031.02 604.492 1034.53 601.456 1035.26C588.399 1038.38 575.519 1042.45 562.128 1043.91C556.935 1044.86 551.072 1045.03 545.953 1046.11C523.062 1050.95 499.38 1051.73 475.95 1051.53C455.027 1051.35 433.412 1048.29 412.616 1044.93C399.763 1066.51 356.787 1099.9 334.028 1112.34C331.287 1113.84 323.374 1117.23 320.436 1117.56C310.169 1118.72 280.848 1119.77 272.007 1116.48C262.183 1112.83 253.636 1108.12 242.192 1104.44C228.847 1107.83 216.628 1118 202.707 1109.74C198.586 1103.18 199.775 1099.74 198.494 1093.09C195.628 1078.24 195.727 1072.7 200.687 1058.52C184.098 1047.56 185.589 1026.32 189.085 1009.3C178.494 1005.49 168.262 1000.74 158.509 995.126C134.851 981.586 114.177 963.891 90.7104 949.136C78.5599 941.497 55.3638 925.251 55.0526 908.613C55.0159 906.65 61.1015 902.556 62.902 901.251L62.8088 900.799C61.9112 896.245 59.1379 890.916 57.2919 886.488C54.111 878.858 54.9776 868.599 55.1472 860.276C58.7873 854.338 59.8582 852.288 65.5324 848.028C78.5243 848.677 83.4881 853.687 93.5757 860.697C107.493 870.369 120.491 882.381 135.153 890.803C148.214 898.306 164.456 902.617 178.796 907.135C173.105 889.165 168.399 871.106 165.925 852.392C160.86 814.083 164.572 775.521 162.441 737.141C156.863 731.907 147.663 724.024 144.274 717.57C138.915 707.367 147.066 694.676 150.472 684.333C150.363 674.55 150.676 665.426 150.98 655.663C144.068 660.825 137.77 679.64 129.082 677.242C110.533 672.121 103.161 641.118 98.9465 625.55C92.1263 600.356 92.6752 602.574 111.098 588.552C100.314 553.711 117.492 566.199 137.463 548.86C133.153 524.07 136.815 503.868 153.863 484.614C142.564 472.918 144.771 461.765 134.392 451.892C128.97 446.734 112.703 446.939 104.737 443.316C96.1635 439.417 90.2287 434.547 83.4972 428.018C82.6294 396.586 83.7508 364.307 83.433 332.822C83.2948 319.135 102.866 305.437 111.477 295.964C114.373 292.778 120.212 289.117 122.347 284.818C128.096 268.274 127.771 249.676 145.161 239.818C147.188 238.668 149.223 237.88 151.6 238.616C160.203 245.639 150.664 262.956 146.477 270.118L154.752 267.871C164.037 262.043 162.193 245.457 165.485 235.427C171.502 217.095 181.544 196.88 183.669 177.784C185.158 164.409 170.167 143.254 164.518 130.944C160.567 122.146 157.599 112.939 155.666 103.49C152.436 86.9569 154.27 73.5828 169.04 63.3663L175.922 60.3725ZM461.274 202.702C444.232 230.525 438.487 238.234 406.275 250.511C400.696 252.637 389.947 256.916 384.838 260.031C375.267 265.865 362.497 278.214 351.538 281.311C348.638 280.722 315.398 269.191 312.61 267.102C299.156 257.024 288.442 255.83 273.307 249.227C267.698 246.664 259.94 238.567 254.255 235.034C253.486 249.131 252.494 253.88 246.545 267.105C249.334 276.349 257.189 284.351 263.427 291.089C270.114 298.313 279.137 304.158 279.889 314.438C280.226 319.056 275.529 325.103 273.928 329.148C274.648 332.365 276.568 340.009 276.3 343.279C275.505 352.986 266.869 366.71 262.439 375.434C259.143 381.924 247.769 390.581 246.824 396.471C254.062 389.866 262.197 384.376 270.177 378.75C300.496 357.373 330.804 343.05 365.278 329.894C365.416 328.934 365.569 327.976 365.736 327.021C368.868 309.27 378.331 297.765 392.653 287.317C398.661 281.782 406.949 281.215 413.467 278.146C443.743 263.889 491.03 248.361 512.527 284.735C513.993 287.215 518.091 292.088 519.002 294.55C522.768 304.727 527.039 312.56 533.111 321.487C533.879 315.788 528.871 305.189 527.542 298.255C525.476 290.395 528.581 273.922 525.604 267.027C517.136 247.406 498.202 229.153 485.993 211.573C479.761 202.599 476.014 197.062 471.285 188.015C467.416 192.216 464.271 197.763 461.274 202.702Z"/><path fill="#8DC544" transform="scale(0.127534 0.127534)" d="M294.219 239.546C293.765 240.471 293.922 240.187 293.873 241.308C298.687 247.131 333.86 257.055 342.436 256.313C350.249 255.637 360.97 247.405 368.915 244.562C390.447 236.857 413.724 234.249 434.265 223.964C439.521 221.318 453.651 206.844 458.017 201.88C458.989 200.775 459.644 200.312 460.886 200.306L461.274 202.702C444.232 230.525 438.487 238.234 406.275 250.511C400.696 252.637 389.947 256.916 384.838 260.031C375.267 265.865 362.497 278.214 351.538 281.311C348.638 280.722 315.398 269.191 312.61 267.102C299.156 257.024 288.442 255.83 273.307 249.227C267.698 246.664 259.94 238.567 254.255 235.034C253.486 249.131 252.494 253.88 246.545 267.105C249.334 276.349 257.189 284.351 263.427 291.089C270.114 298.313 279.137 304.158 279.889 314.438C280.226 319.056 275.529 325.103 273.928 329.148C274.648 332.365 276.568 340.009 276.3 343.279C275.505 352.986 266.869 366.71 262.439 375.434C259.143 381.924 247.769 390.581 246.824 396.471C244.2 402.411 225.252 417.184 220.456 423.724C218.247 426.735 214.946 431.525 212.738 434.294C211.248 431.063 209.564 429.257 206.766 427.188C206.86 425.268 207.06 425.078 207.949 423.306C208.19 423.136 208.431 422.966 208.672 422.795C212.008 418.546 220.384 413.704 220.832 408.328C220.998 408.066 232.842 397.201 234.27 395.782C238.543 388.777 246.449 379.349 249.068 371.763C251.523 364.653 245.47 362.864 250.292 354.938C247.365 353.712 245.978 353.072 244.832 349.947C251.554 340.19 246.744 323.743 243.609 313.446C247.109 311.197 247.886 309.873 250.127 306.492C249.195 302.882 248.85 300.146 248.352 296.432C245.783 289.66 239.818 284.619 234.619 279.801C235.784 276.174 237.028 270.444 237.973 266.612C252.962 263.325 246.864 233.541 248.988 222.834C250.056 221.185 251.844 220.797 253.777 220.027C270.418 230.721 275.527 233.21 294.219 239.546Z"/><path fill="#DCD195" transform="scale(0.127534 0.127534)" d="M248.352 296.432C251.443 297.302 252.51 299.781 254.164 302.749C266.135 324.244 268.814 336.783 261.678 360.484C257.015 375.971 254.809 377.578 244.548 390.295L243.953 388.46L243.425 387.38C239.537 387.251 237.733 394.694 234.27 395.782C238.543 388.777 246.449 379.349 249.068 371.763C251.523 364.653 245.47 362.864 250.292 354.938C247.365 353.712 245.978 353.072 244.832 349.947C251.554 340.19 246.744 323.743 243.609 313.446C247.109 311.197 247.886 309.873 250.127 306.492C249.195 302.882 248.85 300.146 248.352 296.432Z"/><path fill="#5D4827" transform="scale(0.127534 0.127534)" d="M250.127 306.492C253.461 320.12 258.259 342.465 250.292 354.938C247.365 353.712 245.978 353.072 244.832 349.947C251.554 340.19 246.744 323.743 243.609 313.446C247.109 311.197 247.886 309.873 250.127 306.492Z"/><path fill="#B4D38B" transform="scale(0.127534 0.127534)" d="M244.548 390.295C242.434 393.019 241.635 394.148 238.99 396.316C239.562 394.586 242.686 390.522 243.953 388.46L244.548 390.295Z"/><path fill="#DCD195" transform="scale(0.127534 0.127534)" d="M365.274 553.595C370.34 551.767 380.55 538.858 384.544 534.869C417.802 501.665 425.202 460.592 431.937 415.895C434.163 403.666 435.3 388.286 441.875 377.536C460.33 347.362 507.058 329.977 534.762 359.005C538.708 363.14 544.013 369.805 548.719 372.205C550.761 376.045 555.013 384.073 556.48 387.981C558.66 386.783 561.123 385.734 561.94 383.465C560.693 380.069 559.418 376.727 558.407 373.25C568.467 384.712 578.022 393.596 587.998 405.703C616.02 439.706 638.157 476.454 658.789 515.263C660.917 519.297 663.157 524.089 665.284 527.937L665.889 530.305C667.797 534.041 669.302 538.207 670.461 542.241C672.289 544.615 673.84 546.895 676.225 548.707C676.915 551.382 676.182 563.524 675.736 566.545C672.747 565.117 670.793 564.609 667.502 565.176C661.84 589.375 654.808 613.48 645.047 636.407C641.786 644.066 636.536 652.507 632.332 659.765C617.877 684.724 600.913 707.617 582.37 729.655C575.901 737.342 569.646 745.733 562.827 753.114C560.643 749.192 559.141 748 555.77 745.148C552.079 742.845 548.791 741.743 544.914 740.093C501.865 721.768 455.119 723.294 409.443 719.016C401.101 718.235 392.393 717.462 383.922 717.003C356.585 715.759 329.212 715.544 301.859 716.36C289.859 716.741 277.9 718.331 265.922 718.811C239.5 719.871 212.634 722.695 186.24 723.157C181.682 722.618 176.574 722.695 171.946 722.644C171.82 717.534 170.233 712.914 168.936 707.925L168.693 703.81C169.051 701.397 168.785 697.872 168.684 695.34C174.935 684.445 185.773 674.946 194.929 666.385C207.542 657.744 220.494 649.607 233.754 641.993C267.392 622.825 305.52 605.051 335.087 579.426C337.358 577.458 339.983 574.236 342.799 573.314L343.815 574.088C344.817 567.361 343.354 567.572 346.243 559.463C348.284 556.013 353.357 549.756 356.003 546.332C358.826 547.836 360.462 549.02 363.711 548.71C365.269 550.665 365.014 550.587 365.274 553.595Z"/><path fill="#A49853" transform="scale(0.127534 0.127534)" d="M561.94 383.465C560.693 380.069 559.418 376.727 558.407 373.25C568.467 384.712 578.022 393.596 587.998 405.703C616.02 439.706 638.157 476.454 658.789 515.263C660.917 519.297 663.157 524.089 665.284 527.937L665.889 530.305C657.156 523.919 647.429 501.73 637.302 496.242C636.745 495.94 635.339 497.31 634.597 497.879C632.557 498.026 632.892 497.735 630.724 496.408L627.006 499.431C623.216 497.832 622.034 496.894 622.234 492.683C623.467 489.879 621.921 488.064 620.596 485.542C622.191 482.74 623.672 482.951 625.001 479.415C625.049 477.248 625.92 475.841 627.68 474.682C623.362 469.728 611.202 467.145 605.171 460.782C589.329 444.065 577.47 416.807 566.453 395.894C564.882 391.775 563.378 387.632 561.94 383.465Z"/><path fill="#443418" transform="scale(0.127534 0.127534)" d="M625.001 479.415C625.049 477.248 625.92 475.841 627.68 474.682C633.387 481.688 635.712 488.015 630.724 496.408L627.006 499.431C623.216 497.832 622.034 496.894 622.234 492.683C623.467 489.879 621.921 488.064 620.596 485.542C622.191 482.74 623.672 482.951 625.001 479.415Z"/><path fill="#5D4827" transform="scale(0.127534 0.127534)" d="M622.234 492.683C622.034 496.894 623.216 497.832 627.006 499.431C618.411 505.306 614.987 507.915 604.459 506.519C610.163 517.899 608.369 524.132 610.755 535.957C618.914 576.388 624.357 609.155 610.258 649.201C601.47 674.161 582.819 694.027 563.159 711.682C560.523 714.049 553.668 716.354 549.394 720.005C548.888 716.29 547.536 715.075 546.686 711.284C568.512 702.404 595.78 668.089 603.19 645.663C616.196 606.294 608.496 562.969 601.507 523.197C600.475 517.325 600.06 510.948 599.64 504.984C596.385 504.286 591.632 503.992 591.233 500.137L592.343 498.879C597.704 496.5 602.895 498.031 606.641 502.317C613.262 499.155 616.502 497.432 622.234 492.683Z"/><path fill="#443418" transform="scale(0.127534 0.127534)" d="M549.394 720.005C544.476 725.821 522.765 723.979 515.495 722.528C511.196 721.67 504.535 718.053 499.984 716.76C440.36 699.829 421.823 635.71 388.561 591.019C385.648 587.106 369.22 584.179 367.953 576.897C368.614 575.002 368.069 575.8 369.784 574.521C377.395 573.001 389.489 581.116 394.279 586.453C402.098 595.211 407.374 605.742 413.547 615.682C432.947 646.921 450.755 684.986 485.346 702.001C505.035 711.685 524.939 718.376 546.686 711.284C547.536 715.075 548.888 716.29 549.394 720.005Z"/><path fill="#5D4827" transform="scale(0.127534 0.127534)" d="M562.604 401.406C563.893 398.84 564.256 397.755 566.453 395.894C577.47 416.807 589.329 444.065 605.171 460.782C611.202 467.145 623.362 469.728 627.68 474.682C625.92 475.841 625.049 477.248 625.001 479.415C622.701 478.418 620.202 477.658 617.812 476.874C616.431 474.608 614.271 471.915 612.628 469.748C611.61 471.706 611.47 472.249 609.88 473.689C596.094 473.102 568.206 415.451 562.604 401.406Z"/><path fill="#443418" transform="scale(0.127534 0.127534)" d="M356.003 546.332C358.826 547.836 360.462 549.02 363.711 548.71C365.269 550.665 365.014 550.587 365.274 553.595C362.732 555.394 354.759 561.966 353.417 562.777L349.79 563.372C347.61 562.467 347.702 561.745 346.243 559.463C348.284 556.013 353.357 549.756 356.003 546.332Z"/><path fill="#5D4827" transform="scale(0.127534 0.127534)" d="M343.815 574.088C344.817 567.361 343.354 567.572 346.243 559.463C347.702 561.745 347.61 562.467 349.79 563.372L353.417 562.777C350.051 570.126 350.499 573.825 351.105 581.776C354.399 583.249 356.563 584.182 360.162 584.737C362.086 585.034 364.99 584.76 366.124 585.654C364.294 586.901 359.21 586.215 357.029 585.763C350.445 584.398 345.336 580.923 343.815 574.088Z"/><path fill="#5D4827" transform="scale(0.127534 0.127534)" d="M670.461 542.241C672.289 544.615 673.84 546.895 676.225 548.707C676.915 551.382 676.182 563.524 675.736 566.545C672.747 565.117 670.793 564.609 667.502 565.176C669.726 555.58 670.263 552.062 670.461 542.241Z"/><path fill="#81793A" transform="scale(0.127534 0.127534)" d="M561.94 383.465C563.378 387.632 564.882 391.775 566.453 395.894C564.256 397.755 563.893 398.84 562.604 401.406C560.697 397.892 558.176 391.804 556.48 387.981C558.66 386.783 561.123 385.734 561.94 383.465Z"/><path fill="#A49853" transform="scale(0.127534 0.127534)" d="M617.812 476.874C620.202 477.658 622.701 478.418 625.001 479.415C623.672 482.951 622.191 482.74 620.596 485.542C619.582 482.969 618.641 479.58 617.812 476.874Z"/><path fill="#81793A" transform="scale(0.127534 0.127534)" d="M416.809 544.778C428.929 520.711 435.167 496.465 446.548 472.208C456.541 450.911 456.875 422.51 469.89 403.652C477.074 393.242 501.441 383.169 513.77 379.302C518.554 380.416 530.996 383.388 533.85 387.568C535.282 389.666 534.385 393.731 536.149 397.132C538.632 401.919 542.889 406.455 545.287 410.903C550.996 421.493 557.102 432.416 562.167 443.304C564.806 448.977 567.1 455.394 569.55 461.2C571.815 466.849 575.877 472.942 577.265 478.867C579.995 490.516 579.709 503.327 581.367 514.997C584.728 538.65 585.872 562.024 586.618 585.866C586.901 594.918 587.792 604.042 587.373 613.112C587.164 623.766 583.144 633.62 581.301 643.987C580.325 649.475 581.159 655.489 579.652 660.895C577.922 667.103 573.331 668.946 567.805 670.549C564.663 672.183 562.167 674.614 559.168 675.758C555.401 677.112 548.949 678.161 544.901 678.77C526.511 681.535 514.666 681.814 496.92 675.553C495.125 674.935 493.321 673.683 491.677 672.668C486.451 668.731 481.444 662.384 476.792 657.812C455.175 636.569 440.795 612.935 428.977 585.185C425.142 576.182 421.087 568.078 417.448 558.462L421.442 553.727L421.701 552.656L420.919 552.658C419.444 550.901 417.796 546.974 416.809 544.778Z"/><path fill="#A49853" transform="scale(0.127534 0.127534)" d="M458.842 459.803C468.484 458.362 480.332 458.125 488.32 464.327C502.009 476.59 513.239 505.323 515.602 523.126C519.087 549.391 516.367 583.839 500.722 605.85C490.498 620.235 475.486 624.379 458.678 623.116C467.496 636.926 477.051 646.429 488.941 657.578C492.833 661.227 496.801 666.098 501.724 668.063L500.049 669.473L496.92 675.553C495.125 674.935 493.321 673.683 491.677 672.668C486.451 668.731 481.444 662.384 476.792 657.812C455.175 636.569 440.795 612.935 428.977 585.185C425.142 576.182 421.087 568.078 417.448 558.462L421.442 553.727L421.701 552.656C424.803 548.019 433.344 532.899 434.293 527.772C436.654 515.015 440.418 507.677 445.01 495.928L458.842 459.803Z"/><defs><linearGradient id="gradient_0" gradientUnits="userSpaceOnUse" x1="445.14111" y1="627.4621" x2="469.68866" y2="601.40515"><stop offset="0" stop-color="#45331A"/><stop offset="1" stop-color="#644F2F"/></linearGradient></defs><path fill="url(#gradient_0)" transform="scale(0.127534 0.127534)" d="M417.448 558.462L421.442 553.727C433.698 576.511 442.841 601.582 458.678 623.116C467.496 636.926 477.051 646.429 488.941 657.578C492.833 661.227 496.801 666.098 501.724 668.063L500.049 669.473L496.92 675.553C495.125 674.935 493.321 673.683 491.677 672.668C486.451 668.731 481.444 662.384 476.792 657.812C455.175 636.569 440.795 612.935 428.977 585.185C425.142 576.182 421.087 568.078 417.448 558.462Z"/><path fill="#81793A" transform="scale(0.127534 0.127534)" d="M491.677 672.668C493.111 670.777 494.047 669.131 496.136 668.119C498.131 668.011 498.29 668.287 500.049 669.473L496.92 675.553C495.125 674.935 493.321 673.683 491.677 672.668Z"/><path fill="#443418" transform="scale(0.127534 0.127534)" d="M416.809 544.778C428.929 520.711 435.167 496.465 446.548 472.208C456.541 450.911 456.875 422.51 469.89 403.652C477.074 393.242 501.441 383.169 513.77 379.302C518.554 380.416 530.996 383.388 533.85 387.568C535.282 389.666 534.385 393.731 536.149 397.132C538.632 401.919 542.889 406.455 545.287 410.903C550.996 421.493 557.102 432.416 562.167 443.304C564.806 448.977 567.1 455.394 569.55 461.2C571.815 466.849 575.877 472.942 577.265 478.867C579.995 490.516 579.709 503.327 581.367 514.997C584.728 538.65 585.872 562.024 586.618 585.866C586.901 594.918 587.792 604.042 587.373 613.112C587.164 623.766 583.144 633.62 581.301 643.987C580.325 649.475 581.159 655.489 579.652 660.895C577.922 667.103 573.331 668.946 567.805 670.549C564.663 672.183 562.167 674.614 559.168 675.758C560.054 673.89 560.129 673.762 560.41 671.74C559.547 669.875 559.955 670.502 557.832 669.329C559.938 667.604 560.627 667.141 562.169 664.784C565.653 658.176 569.731 658.11 572.501 649.062C581.856 618.497 578.542 587.389 576.445 556.074C574.9 532.996 574.336 509.481 572.414 486.529C571.541 485.976 570.7 485.375 569.894 484.729C562.019 478.475 564.264 470.564 563.057 460.589C554.286 452.289 555.458 448.901 550.328 438.87C543.929 426.356 537.555 408.316 528.277 398.191C526.148 395.867 516.959 390.988 513.97 389.319C499.502 392.158 494.217 395.236 482.812 404.904C468.524 417.015 467.302 428.316 463.973 445.418C463.178 449.503 460.499 455.774 458.842 459.803L445.01 495.928C440.418 507.677 436.654 515.015 434.293 527.772C433.344 532.899 424.803 548.019 421.701 552.656L420.919 552.658C419.444 550.901 417.796 546.974 416.809 544.778Z"/><path fill="#5D4827" transform="scale(0.127534 0.127534)" d="M557.832 669.329C559.938 667.604 560.627 667.141 562.169 664.784C563.673 667.456 564.848 669.333 567.805 670.549C564.663 672.183 562.167 674.614 559.168 675.758C560.054 673.89 560.129 673.762 560.41 671.74C559.547 669.875 559.955 670.502 557.832 669.329Z"/><path fill="#443418" transform="scale(0.127534 0.127534)" d="M501.724 668.063C515.412 669.986 523.679 666.176 537.275 667.253C544.098 667.793 551.657 671.307 557.832 669.329C559.955 670.502 559.547 669.875 560.41 671.74C560.129 673.762 560.054 673.89 559.168 675.758C555.401 677.112 548.949 678.161 544.901 678.77C526.511 681.535 514.666 681.814 496.92 675.553L500.049 669.473L501.724 668.063Z"/><path fill="#A49853" transform="scale(0.127534 0.127534)" d="M507.015 453.951C522.269 458.407 536.706 511.408 535.529 526.435C535.203 530.59 534.56 533.148 532.791 536.859C531.212 538.365 530.361 539.026 528.406 539.028C523.177 532.769 519.629 497.471 516.096 487.619C513.144 479.386 505.954 461.603 507.015 453.951Z"/><path fill="#443418" transform="scale(0.127534 0.127534)" d="M378.918 662.912C385.943 666.311 406.621 696.299 409.451 704.164C404.092 703.607 401.069 701.352 398.037 696.871C390.737 686.082 382.313 675.706 378.918 662.912Z"/><path fill="#81793A" transform="scale(0.127534 0.127534)" d="M631.219 522.181C638.848 525.385 635.955 565.593 633.372 573.305C631.208 572.849 630.91 572.872 629.079 571.734C627.923 568.799 630.351 551.563 630.585 546.839C630.984 538.795 630.578 530.063 631.219 522.181Z"/><path fill="#5D4827" transform="scale(0.127534 0.127534)" d="M416.809 544.778C417.796 546.974 419.444 550.901 420.919 552.658L421.701 552.656L421.442 553.727L417.448 558.462L415.92 558.17C412.743 560.579 409.819 564.023 407.512 567.27C406.006 566.291 403.649 564.463 402.01 564.363C400.675 563.954 399.442 562.971 398.229 562.171C406.28 555.942 410.734 553.145 416.809 544.778Z"/><path fill="#81793A" transform="scale(0.127534 0.127534)" d="M420.919 552.658L421.701 552.656L421.442 553.727L417.448 558.462L415.92 558.17C417.86 555.522 418.484 554.873 420.919 552.658Z"/><path fill="#443418" transform="scale(0.127534 0.127534)" d="M402.01 564.363C402.066 565.575 402.312 567.947 401.693 568.839C398.847 572.943 392.098 574.137 388.133 571.58C386.011 566.702 394.71 563.759 398.229 562.171C399.442 562.971 400.675 563.954 402.01 564.363Z"/><path fill="#81793A" transform="scale(0.127534 0.127534)" d="M413.962 681.317C419.816 683.577 425.636 689.759 426.996 695.991C421.002 693.521 414.62 688.13 413.962 681.317Z"/><path fill="#5D4827" transform="scale(0.127534 0.127534)" d="M404.438 682.008C409.78 686.169 413.383 691.005 416.603 696.926C409.514 695.386 406.665 688.111 404.438 682.008Z"/><path fill="#A49853" transform="scale(0.127534 0.127534)" d="M241.68 987.441C261.443 978.289 297.427 980.869 317.602 986.726C340.766 993.452 359.899 1002.51 362.074 967.973C362.453 961.951 359.321 939.496 364.802 936.824C366.791 938.061 371.729 957.974 373.436 962.228C375.666 967.786 378.132 973.394 381.423 978.412C389.546 990.801 404.711 1004.82 418.153 1011.1C442.749 1022.59 520.03 1023.38 548.345 1019.22L549.167 1019.76L552.291 1018.9C553.811 1017.31 553.418 1018.23 553.5 1016.03C551.653 1011.59 544.559 1006.87 540.573 1003.75C554.686 994.396 555.148 988.986 565.545 976.969C576.079 964.794 582.633 955.973 591.713 942.953L592.352 940.898L592.857 941.264C596.823 944.184 602.21 951.116 605.427 955.02C622.283 975.48 635.125 985.68 662.984 981.167C672.469 979.63 685.132 977.099 694.786 975.937C714.609 973.55 739.066 973.25 759.035 975.095C766.922 975.823 788.15 983.201 794.7 988.258C797.749 990.611 800.76 993.769 802.107 997.543C801.953 1006.9 800.594 1023.88 791.752 1028.81C789.352 1029.24 787.685 1029.45 785.394 1030.38C785.344 1026.59 785.699 1024.16 786.198 1020.37C779.878 1024.97 775.181 1033 769.685 1039.07C751.278 1059.39 729.066 1092.18 698.041 1090.15C686.511 1088.95 674.03 1078.47 661.929 1075.6C647.337 1072.14 637.221 1076.38 623.26 1075.77C618.632 1072.7 615.246 1069.43 612.391 1064.56C610.997 1060.85 610.866 1060.19 610.549 1056.22C610.485 1053.96 610.34 1050.6 610.694 1048.39C611.34 1044.36 615.494 1035.78 614.503 1032.09C611.996 1031.02 604.492 1034.53 601.456 1035.26C588.399 1038.38 575.519 1042.45 562.128 1043.91C556.935 1044.86 551.072 1045.03 545.953 1046.11C523.062 1050.95 499.38 1051.73 475.95 1051.53C455.027 1051.35 433.412 1048.29 412.616 1044.93C399.763 1066.51 356.787 1099.9 334.028 1112.34C331.287 1113.84 323.374 1117.23 320.436 1117.56C310.169 1118.72 280.848 1119.77 272.007 1116.48C262.183 1112.83 253.636 1108.12 242.192 1104.44C228.847 1107.83 216.628 1118 202.707 1109.74C198.586 1103.18 199.775 1099.74 198.494 1093.09C195.628 1078.24 195.727 1072.7 200.687 1058.52C184.098 1047.56 185.589 1026.32 189.085 1009.3C190.294 1006.89 190.273 1003.15 189.594 1000.6L189.871 998.97C193.16 995.612 194.434 995.004 198.691 997.276C198.174 998.878 197.309 1003.42 197.248 1003.59C197.904 1006.77 197.402 1011.2 197.188 1014.54C209.211 1000.65 225.558 995.337 241.68 987.441Z"/><defs><linearGradient id="gradient_1" gradientUnits="userSpaceOnUse" x1="246.06924" y1="928.60883" x2="546.54883" y2="1163.6622"><stop offset="0" stop-color="#2F3314"/><stop offset="1" stop-color="#47371B"/></linearGradient></defs><path fill="url(#gradient_1)" transform="scale(0.127534 0.127534)" d="M189.871 998.97C193.16 995.612 194.434 995.004 198.691 997.276C198.174 998.878 197.309 1003.42 197.248 1003.59C197.904 1006.77 197.402 1011.2 197.188 1014.54C196.064 1017.06 195.068 1019.17 194.255 1021.81C194.075 1027.84 195.452 1032.04 197.162 1037.81C225.653 1012.45 245.107 1000.45 285.174 1002.28C321.699 1003.95 347.035 1016.82 380.927 1028.14C395.8 1033.11 414.771 1036.55 430.306 1039.22C493.734 1050.15 551.367 1038.95 612.907 1023.83C618.469 1023.8 618.967 1024.21 623.831 1027.05C630.564 1028.96 646.107 1025.99 649.991 1030.8C650.602 1036.86 636.251 1044.48 631.46 1045.11L632.497 1036.82C628.19 1035.93 626.619 1035.94 622.162 1035.95C620.989 1041.92 619.309 1051.28 617.01 1056.88C613.562 1057.63 613.231 1057.73 610.549 1056.22C610.485 1053.96 610.34 1050.6 610.694 1048.39C611.34 1044.36 615.494 1035.78 614.503 1032.09C611.996 1031.02 604.492 1034.53 601.456 1035.26C588.399 1038.38 575.519 1042.45 562.128 1043.91C556.935 1044.86 551.072 1045.03 545.953 1046.11C523.062 1050.95 499.38 1051.73 475.95 1051.53C455.027 1051.35 433.412 1048.29 412.616 1044.93C399.763 1066.51 356.787 1099.9 334.028 1112.34C331.287 1113.84 323.374 1117.23 320.436 1117.56C310.169 1118.72 280.848 1119.77 272.007 1116.48C262.183 1112.83 253.636 1108.12 242.192 1104.44C228.847 1107.83 216.628 1118 202.707 1109.74C198.586 1103.18 199.775 1099.74 198.494 1093.09C195.628 1078.24 195.727 1072.7 200.687 1058.52C184.098 1047.56 185.589 1026.32 189.085 1009.3C190.294 1006.89 190.273 1003.15 189.594 1000.6L189.871 998.97Z"/><path fill="#443418" transform="scale(0.127534 0.127534)" d="M197.248 1003.59C197.904 1006.77 197.402 1011.2 197.188 1014.54C196.064 1017.06 195.068 1019.17 194.255 1021.81C193.89 1015.29 195.307 1009.81 197.248 1003.59Z"/><path fill="#5D5F2B" transform="scale(0.127534 0.127534)" d="M231.065 1021.97C258.047 1008.01 275.341 1009.45 304.819 1012.01C289.594 1016.68 287.745 1026.55 298.526 1037.73C290.519 1037.56 279.346 1036.55 273.124 1042.58C265.06 1050.39 269.668 1065.02 272.893 1073.91C274.91 1077.13 275.767 1078.64 277.285 1082.09C278.063 1088.72 279.631 1094.32 282.149 1100.5C286.762 1103.51 294.952 1106.91 296.802 1111.23C290.61 1111.28 280.815 1111.73 275.263 1110.13C264.364 1106.99 249.891 1093.58 237.989 1095.76C227.477 1097.69 225.725 1104.37 212.629 1107.3C205.887 1096.27 205.587 1078.29 206.931 1065.59C206.581 1062.49 207.576 1060.5 208.208 1057.47C209.167 1052.87 202.114 1054.36 200.619 1050.95C196.053 1040.53 215.427 1030.93 222.112 1027.58C223.565 1026.05 224.354 1024.8 226.344 1024.52C230.753 1027.51 228.478 1039.45 226.765 1043.65C225.715 1049.26 223.45 1068.48 226.968 1072.68C233.855 1072.91 235.633 1044.13 235.995 1038.82C235.777 1035.92 235.835 1032.04 235.793 1029.07C234.292 1025.88 233.348 1024.71 231.065 1021.97Z"/><path fill="#A49853" transform="scale(0.127534 0.127534)" d="M206.931 1065.59C208.374 1061.45 208.787 1059.74 212.406 1057.01C215.459 1056.13 218.516 1057.71 220.074 1060.37C220.622 1063.5 220.006 1066.99 219.709 1070.21C219.079 1077.03 219.562 1079.67 221.348 1086.14C254.481 1072.03 247.3 1095.13 262.78 1092.49C268.418 1088.34 259.022 1075.3 272.893 1073.91C274.91 1077.13 275.767 1078.64 277.285 1082.09C278.063 1088.72 279.631 1094.32 282.149 1100.5C286.762 1103.51 294.952 1106.91 296.802 1111.23C290.61 1111.28 280.815 1111.73 275.263 1110.13C264.364 1106.99 249.891 1093.58 237.989 1095.76C227.477 1097.69 225.725 1104.37 212.629 1107.3C205.887 1096.27 205.587 1078.29 206.931 1065.59Z"/><path fill="#44491F" transform="scale(0.127534 0.127534)" d="M222.112 1027.58C223.565 1026.05 224.354 1024.8 226.344 1024.52C230.753 1027.51 228.478 1039.45 226.765 1043.65C225.613 1038.72 225.668 1031.21 222.112 1027.58Z"/><path fill="#44491F" transform="scale(0.127534 0.127534)" d="M235.793 1029.07C237.51 1031.73 239.983 1035.21 239.944 1038.42L239.119 1039.45C237.524 1039.52 237.447 1039.38 235.995 1038.82C235.777 1035.92 235.835 1032.04 235.793 1029.07Z"/><path fill="#5D5F2B" transform="scale(0.127534 0.127534)" d="M373.948 1035.54C383.984 1039.04 394.357 1041.48 404.899 1042.84C398.97 1050.67 390.054 1058.67 382.269 1065.51C361.426 1083.8 335.667 1106.47 307.38 1111.35C305.251 1111.72 298.679 1112.01 296.802 1111.23C294.952 1106.91 286.762 1103.51 282.149 1100.5C279.631 1094.32 278.063 1088.72 277.285 1082.09C292.156 1098.73 297.005 1097.03 295.024 1074.12C305.152 1083.52 309.832 1087.5 324.962 1087.04C336.349 1086.7 351.606 1081.39 351.718 1067.39C351.774 1060.51 345.002 1055.25 339.831 1051.49C353.876 1048.39 365.446 1047.75 373.948 1035.54Z"/><path fill="#443418" transform="scale(0.127534 0.127534)" d="M634.614 1016.88C633.998 1014.83 633.463 1013.67 633.711 1011.54C636.391 1008.31 641.849 1011.82 644.791 1010.92C652.778 1008.48 660.459 1004.51 668.53 1002.16C698.148 992.305 729.169 989.623 759.553 997.63C768.363 999.952 779.332 1002.06 786.295 1008.5C789.039 1011.04 792.828 1015.94 792.63 1019.79C792.55 1021.35 791.782 1022.12 790.811 1023.24C789.266 1025.31 790.587 1026.81 791.752 1028.81C789.352 1029.24 787.685 1029.45 785.394 1030.38C785.344 1026.59 785.699 1024.16 786.198 1020.37C779.878 1024.97 775.181 1033 769.685 1039.07C751.278 1059.39 729.066 1092.18 698.041 1090.15C686.511 1088.95 674.03 1078.47 661.929 1075.6C647.337 1072.14 637.221 1076.38 623.26 1075.77C618.632 1072.7 615.246 1069.43 612.391 1064.56C610.997 1060.85 610.866 1060.19 610.549 1056.22C613.231 1057.73 613.562 1057.63 617.01 1056.88C619.309 1051.28 620.989 1041.92 622.162 1035.95C626.619 1035.94 628.19 1035.93 632.497 1036.82L631.46 1045.11C636.251 1044.48 650.602 1036.86 649.991 1030.8C646.107 1025.99 630.564 1028.96 623.831 1027.05C627.111 1024.51 634.456 1022.7 638.631 1021.57C637.034 1019.19 636.669 1018.81 634.614 1016.88Z"/><path fill="#44491F" transform="scale(0.127534 0.127534)" d="M703.933 1003.38C719.985 1001.08 743.704 997.892 757.884 1007.26C770.865 1025.7 751.694 1031.13 737.044 1032.73C739.997 1038.86 740.328 1040 740.807 1046.77C736.969 1052.79 732.825 1056.54 725.553 1057.86C711.12 1060.49 694.571 1062.31 679.96 1061.17C678.938 1060.51 676.372 1057.75 675.373 1056.73C673.304 1035.36 690.362 1036.29 707.171 1032.55C694.325 1024.59 686.18 1012.5 703.933 1003.38Z"/><path fill="#5D5F2B" transform="scale(0.127534 0.127534)" d="M638.631 1021.57C645.688 1019.61 654.425 1015.2 660.852 1013.12C669.626 1010.27 696.175 1002.08 703.933 1003.38C686.18 1012.5 694.325 1024.59 707.171 1032.55C690.362 1036.29 673.304 1035.36 675.373 1056.73C655.671 1041.15 641.086 1053.4 632.165 1049.78C631.079 1047.78 631.446 1047.55 631.46 1045.11C636.251 1044.48 650.602 1036.86 649.991 1030.8C646.107 1025.99 630.564 1028.96 623.831 1027.05C627.111 1024.51 634.456 1022.7 638.631 1021.57Z"/><path fill="#5D5F2B" transform="scale(0.127534 0.127534)" d="M757.884 1007.26C764.519 1008.54 773.358 1011.66 779.901 1013.88C769.151 1028.62 720.894 1089.35 699.336 1080.22C696.331 1073.75 685.701 1066.38 679.96 1061.17C694.571 1062.31 711.12 1060.49 725.553 1057.86C732.825 1056.54 736.969 1052.79 740.807 1046.77C740.328 1040 739.997 1038.86 737.044 1032.73C751.694 1031.13 770.865 1025.7 757.884 1007.26Z"/><path fill="#A49853" transform="scale(0.127534 0.127534)" d="M622.162 1035.95C626.619 1035.94 628.19 1035.93 632.497 1036.82L631.46 1045.11C631.446 1047.55 631.079 1047.78 632.165 1049.78C641.086 1053.4 655.671 1041.15 675.373 1056.73C676.372 1057.75 678.938 1060.51 679.96 1061.17C685.701 1066.38 696.331 1073.75 699.336 1080.22C682.527 1077.01 677.559 1069.58 662.214 1065.77C648.966 1062.47 633.419 1071.43 620.761 1067.18C619.159 1066.65 615.632 1064.25 614.125 1063.24L612.391 1064.56C610.997 1060.85 610.866 1060.19 610.549 1056.22C613.231 1057.73 613.562 1057.63 617.01 1056.88C619.309 1051.28 620.989 1041.92 622.162 1035.95Z"/><path fill="#A49853" transform="scale(0.127534 0.127534)" d="M610.549 1056.22C613.231 1057.73 613.562 1057.63 617.01 1056.88C616.204 1058.77 615.121 1061.54 614.125 1063.24L612.391 1064.56C610.997 1060.85 610.866 1060.19 610.549 1056.22Z"/><path fill="#5D4827" transform="scale(0.127534 0.127534)" d="M786.198 1020.37L787.477 1019.5C789.544 1020.28 789.074 1021.19 790.811 1023.24C789.266 1025.31 790.587 1026.81 791.752 1028.81C789.352 1029.24 787.685 1029.45 785.394 1030.38C785.344 1026.59 785.699 1024.16 786.198 1020.37Z"/><path fill="#5D5F2B" transform="scale(0.127534 0.127534)" d="M591.713 942.953C593.136 973.761 599.913 965.32 610.808 990.321C597.603 1013.89 590.562 1009 566.685 1014.56C564.012 1015.18 561.206 1017.23 558.763 1018.54C554.41 1020.87 553.926 1022.9 549.167 1019.76L552.291 1018.9C553.811 1017.31 553.418 1018.23 553.5 1016.03C551.653 1011.59 544.559 1006.87 540.573 1003.75C554.686 994.396 555.148 988.986 565.545 976.969C576.079 964.794 582.633 955.973 591.713 942.953Z"/><path fill="#44491F" transform="scale(0.127534 0.127534)" d="M634.614 1016.88C636.669 1018.81 637.034 1019.19 638.631 1021.57C634.456 1022.7 627.111 1024.51 623.831 1027.05C618.967 1024.21 618.469 1023.8 612.907 1023.83C619.303 1021.55 628.964 1019.26 634.614 1016.88Z"/><path fill="#443418" transform="scale(0.127534 0.127534)" d="M476.515 55.5889C483.872 66.5909 491.134 77.0212 498.954 87.685C502.038 93.1286 498.206 105.083 503.694 109.226C518.155 120.142 534.412 136.242 549.823 145.251C566.014 154.715 564.863 150.844 576.386 167.943C583.035 161.402 592.778 151.409 601.47 147.888C612.383 149.623 619.94 153.627 626.536 162.642C636.004 175.583 634.909 194.657 654.345 197.375C658.499 197.956 662.702 198.497 666.915 198.99C666.328 193.338 665.24 185.2 665.01 179.647C685.914 196.013 695.986 218.798 704.005 242.829C706.398 249.998 714.451 257.56 714.55 266.233C715.048 274.774 716.576 294.458 714.176 301.999C710.444 313.722 706.377 318.592 705.858 332.086C716.076 349.187 736.689 361.537 730.235 385.646C728.782 391.072 719.784 408.296 716.413 412.976C709.908 422.007 688.585 436.297 677.876 438.493C664.7 433.269 659.328 421.001 649.441 412.152C644.422 407.661 634.14 402.677 628.214 398.627C623.434 395.361 617.717 390.939 612.927 388.024C609.458 385.913 600.221 385.112 595.99 383.425C586.918 379.806 575.25 371.225 565.716 369.953C562.13 368.799 553.12 360.076 550.779 356.686C546.773 349.292 542.98 341.786 539.403 334.175C537.787 331.317 534.156 324.606 533.111 321.487C533.879 315.788 528.871 305.189 527.542 298.255C525.476 290.395 528.581 273.922 525.604 267.027C517.136 247.406 498.202 229.153 485.993 211.573C479.761 202.599 476.014 197.062 471.285 188.015C467.416 192.216 464.271 197.763 461.274 202.702L460.886 200.306C459.644 200.312 458.989 200.775 458.017 201.88C453.651 206.844 439.521 221.318 434.265 223.964C413.724 234.249 390.447 236.857 368.915 244.562C360.97 247.405 350.249 255.637 342.436 256.313C333.86 257.055 298.687 247.131 293.873 241.308C293.922 240.187 293.765 240.471 294.219 239.546C321.473 245.008 352.44 239.936 379.049 232.955C415.496 223.494 446.734 200.032 465.971 167.671C466.256 164.325 465.393 160.632 464.784 157.284C463.885 152.036 466.822 154.744 468.913 150.481C481.168 125.948 475.403 123.723 477.63 98.9531C480.094 94.9896 480.554 94.5842 484.933 92.9934C484.128 87.142 482.286 81.365 480.56 75.7273L482.144 75.1332C480.072 69.758 478.012 61.3447 476.515 55.5889Z"/><path fill="#8DC544" transform="scale(0.127534 0.127534)" d="M476.515 55.5889C483.872 66.5909 491.134 77.0212 498.954 87.685C502.038 93.1286 498.206 105.083 503.694 109.226C518.155 120.142 534.412 136.242 549.823 145.251C566.014 154.715 564.863 150.844 576.386 167.943C583.035 161.402 592.778 151.409 601.47 147.888C612.383 149.623 619.94 153.627 626.536 162.642C636.004 175.583 634.909 194.657 654.345 197.375C658.499 197.956 662.702 198.497 666.915 198.99C666.328 193.338 665.24 185.2 665.01 179.647C685.914 196.013 695.986 218.798 704.005 242.829C706.398 249.998 714.451 257.56 714.55 266.233C715.048 274.774 716.576 294.458 714.176 301.999C710.444 313.722 706.377 318.592 705.858 332.086C716.076 349.187 736.689 361.537 730.235 385.646C728.782 391.072 719.784 408.296 716.413 412.976C709.908 422.007 688.585 436.297 677.876 438.493C664.7 433.269 659.328 421.001 649.441 412.152C644.422 407.661 634.14 402.677 628.214 398.627C623.434 395.361 617.717 390.939 612.927 388.024C609.458 385.913 600.221 385.112 595.99 383.425C586.918 379.806 575.25 371.225 565.716 369.953C562.13 368.799 553.12 360.076 550.779 356.686C562.082 359.95 598.189 383.929 607.909 372.447C602.468 371.355 596.532 370.7 592.336 367.035C595.201 364.557 593.05 364.314 598.651 362.659C600.464 362.779 600.623 362.794 602.323 363.393C611.173 366.964 639.93 366.083 649.696 363.804C660.842 361.204 669.319 355.387 675.356 345.682C676.541 343.804 677.639 341.873 678.647 339.894C688.778 320.303 682.199 303.412 678.362 283.585C677.008 276.587 676.201 270.591 673.995 263.733C672.472 262.823 672.21 262.251 671.12 260.789C670.001 258.362 668.624 256.063 667.011 253.932C660.802 245.83 652.855 241.706 644.273 236.704C641.911 235.327 641.471 234.041 639.032 233.719C639.719 233.474 640.275 233.226 640.943 232.94C641.44 231.463 641.91 229.976 642.35 228.482C636.359 225.754 632.098 225.666 625.652 226.014C625.134 225.16 624.594 224.319 624.034 223.491C617.313 213.651 597.367 210.205 586.838 214.768C585.118 215.514 582.88 217.075 581.305 218.16C560.179 194.048 534.519 170.049 511.167 147.943C501.711 138.992 493.918 133.182 485.099 123.12C486.85 112.164 487.021 103.94 484.933 92.9934C484.128 87.142 482.286 81.365 480.56 75.7273L482.144 75.1332C480.072 69.758 478.012 61.3447 476.515 55.5889Z"/><path fill="#DCD195" transform="scale(0.127534 0.127534)" d="M482.144 75.1332C483.729 76.4068 484.826 80.2414 486.654 82.3466C489.544 85.674 493.462 88.7095 496.247 91.9753C495.275 108.257 493.634 117.19 505.78 130.317C517.795 143.304 532.157 155.308 543.605 168.621C554.012 180.725 561.257 188.894 574.653 198.022C582.426 203.318 586.153 211.113 597.719 210.602C607.182 211.291 621.174 210.579 630.102 212.908C633.831 213.875 637.426 215.299 640.807 217.146C649.149 221.644 686.501 247.221 691.387 253.525C703.468 269.112 690.614 322.664 700.198 342.836C705.896 354.828 718.224 359.613 724.376 368.578C725.705 379.341 724.634 386.161 717.869 395.044C710.831 404.285 702.581 407.582 693.239 413.448C689.375 415.874 685.555 422.432 679.616 423.103C674.256 423.708 669.394 420.225 665.469 416.977C654.054 407.532 644.935 396.65 633.36 387.3C629.77 384.399 620.562 379.227 616.712 376.022C616.612 375.52 616.513 375.018 616.413 374.517L607.909 372.447C602.468 371.355 596.532 370.7 592.336 367.035C595.201 364.557 593.05 364.314 598.651 362.659C600.464 362.779 600.623 362.794 602.323 363.393C611.173 366.964 639.93 366.083 649.696 363.804C660.842 361.204 669.319 355.387 675.356 345.682C676.541 343.804 677.639 341.873 678.647 339.894C688.778 320.303 682.199 303.412 678.362 283.585C677.008 276.587 676.201 270.591 673.995 263.733C672.472 262.823 672.21 262.251 671.12 260.789C670.001 258.362 668.624 256.063 667.011 253.932C660.802 245.83 652.855 241.706 644.273 236.704C641.911 235.327 641.471 234.041 639.032 233.719C639.719 233.474 640.275 233.226 640.943 232.94C641.44 231.463 641.91 229.976 642.35 228.482C636.359 225.754 632.098 225.666 625.652 226.014C625.134 225.16 624.594 224.319 624.034 223.491C617.313 213.651 597.367 210.205 586.838 214.768C585.118 215.514 582.88 217.075 581.305 218.16C560.179 194.048 534.519 170.049 511.167 147.943C501.711 138.992 493.918 133.182 485.099 123.12C486.85 112.164 487.021 103.94 484.933 92.9934C484.128 87.142 482.286 81.365 480.56 75.7273L482.144 75.1332Z"/><path fill="#443418" transform="scale(0.127534 0.127534)" d="M680.411 261.417C691.039 284.708 695.943 320.226 687.626 344.526C704.679 353.344 716.13 365.118 716.017 384.834C708.787 394.768 698.301 403.219 685.97 405.088C680.52 405.915 669.787 405.941 665.775 401.859C657.176 393.11 645.47 384.238 637.633 375.196C631.341 375.292 622.573 375.569 616.413 374.517L607.909 372.447C602.468 371.355 596.532 370.7 592.336 367.035C595.201 364.557 593.05 364.314 598.651 362.659C600.464 362.779 600.623 362.794 602.323 363.393C611.173 366.964 639.93 366.083 649.696 363.804C660.842 361.204 669.319 355.387 675.356 345.682C676.541 343.804 677.639 341.873 678.647 339.894C688.778 320.303 682.199 303.412 678.362 283.585C677.008 276.587 676.201 270.591 673.995 263.733C676.34 263.788 676.687 263.793 678.899 263.048C679.255 262.49 679.92 261.905 680.411 261.417Z"/><path fill="#A49853" transform="scale(0.127534 0.127534)" d="M598.651 362.659C600.464 362.779 600.623 362.794 602.323 363.393C598.569 367.901 598.311 367.851 592.336 367.035C595.201 364.557 593.05 364.314 598.651 362.659Z"/><path fill="#5D5F2B" transform="scale(0.127534 0.127534)" d="M682.964 352.405C689.625 354.648 705.806 368.956 706.95 376.121C709.622 392.85 683.464 394.529 673.155 396.083C665.831 389.467 654.547 380.936 646.69 374.693C665.44 364.474 666.394 369.571 682.964 352.405Z"/><path fill="#5D4827" transform="scale(0.127534 0.127534)" d="M642.35 228.482L642.956 228.859C646.822 231.221 652.084 233.056 656.354 234.871C668.478 240.026 674.773 250.039 680.411 261.417C679.92 261.905 679.255 262.49 678.899 263.048C676.687 263.793 676.34 263.788 673.995 263.733C672.472 262.823 672.21 262.251 671.12 260.789C670.001 258.362 668.624 256.063 667.011 253.932C660.802 245.83 652.855 241.706 644.273 236.704C641.911 235.327 641.471 234.041 639.032 233.719C639.719 233.474 640.275 233.226 640.943 232.94C641.44 231.463 641.91 229.976 642.35 228.482Z"/><path fill="#A49853" transform="scale(0.127534 0.127534)" d="M671.12 260.789C672.48 259.41 673.1 258.433 674.923 258.203C677.177 259.083 677.65 260.238 678.709 262.611L678.899 263.048C676.687 263.793 676.34 263.788 673.995 263.733C672.472 262.823 672.21 262.251 671.12 260.789Z"/><path fill="#A49853" transform="scale(0.127534 0.127534)" d="M639.032 233.719C641.471 234.041 641.911 235.327 644.273 236.704C652.855 241.706 660.802 245.83 667.011 253.932C668.624 256.063 670.001 258.362 671.12 260.789C672.21 262.251 672.472 262.823 673.995 263.733C676.201 270.591 677.008 276.587 678.362 283.585C682.199 303.412 688.778 320.303 678.647 339.894C677.639 341.873 676.541 343.804 675.356 345.682C669.319 355.387 660.842 361.204 649.696 363.804C639.93 366.083 611.173 366.964 602.323 363.393C600.623 362.794 600.464 362.779 598.651 362.659C577.79 355.9 566.991 352.281 560.125 330.276C558.707 326.256 557.24 322.644 555.621 318.719C554.332 314.623 554.745 312.893 555.26 308.688C557.366 301.261 562.424 286.127 566.644 280.16C578.231 263.776 594.932 280.945 599.336 280.178C602.263 273.67 588.337 268.45 584.205 266.741C601.215 239.121 606.946 237.26 639.032 233.719Z"/><path fill="#DCD195" transform="scale(0.127534 0.127534)" d="M560.125 330.276L563.066 310.395C567.028 317.49 570.068 324.422 575.196 330.562C589.987 348.273 611.04 349.508 632.316 350.174C638.779 350.376 646.345 352.832 652.904 351.642C659.675 350.534 668.571 345.236 675.356 345.682C669.319 355.387 660.842 361.204 649.696 363.804C639.93 366.083 611.173 366.964 602.323 363.393C600.623 362.794 600.464 362.779 598.651 362.659C577.79 355.9 566.991 352.281 560.125 330.276Z"/><path fill="#DCD195" transform="scale(0.127534 0.127534)" d="M555.26 308.688C556.969 310.101 557.899 310.634 558.553 312.806C558.568 315.521 557.527 316.788 555.621 318.719C554.332 314.623 554.745 312.893 555.26 308.688Z"/><path fill="#DCD195" transform="scale(0.127534 0.127534)" d="M473.308 156.431C482.83 171.572 492.43 187.432 504.118 200.97C504.814 201.776 508.374 206.042 508.991 206.535L512.324 210.996C514.489 214.303 516.818 218.048 519.215 221.144L524.229 227.499C532.816 238.473 551.707 263.086 561.982 271.523C551.791 286.118 545.689 303.493 549.032 321.388C552.046 337.524 556.349 350.323 570.32 360.209C578.898 366.279 587.207 364.528 592.336 367.035C596.532 370.7 602.468 371.355 607.909 372.447C598.189 383.929 562.082 359.95 550.779 356.686C546.773 349.292 542.98 341.786 539.403 334.175C537.787 331.317 534.156 324.606 533.111 321.487C533.879 315.788 528.871 305.189 527.542 298.255C525.476 290.395 528.581 273.922 525.604 267.027C517.136 247.406 498.202 229.153 485.993 211.573C479.761 202.599 476.014 197.062 471.285 188.015C467.416 192.216 464.271 197.763 461.274 202.702L460.886 200.306C459.644 200.312 458.989 200.775 458.017 201.88C453.651 206.844 439.521 221.318 434.265 223.964C413.724 234.249 390.447 236.857 368.915 244.562C360.97 247.405 350.249 255.637 342.436 256.313C333.86 257.055 298.687 247.131 293.873 241.308C293.922 240.187 293.765 240.471 294.219 239.546C321.473 245.008 352.44 239.936 379.049 232.955C415.496 223.494 446.734 200.032 465.971 167.671C468.317 164.058 470.878 159.932 473.308 156.431Z"/><path fill="#8DC544" transform="scale(0.127534 0.127534)" d="M471.285 188.015C472.765 185.593 473.081 184.504 475.46 183.538C480.189 183.647 484.549 188.274 487.517 191.546C494.579 199.332 502.597 206.334 509.662 214.085C535.276 242.186 541.198 263.511 539.919 301.055C539.652 308.914 540.177 318.618 540.005 326.671C539.944 329.182 539.743 331.687 539.403 334.175C537.787 331.317 534.156 324.606 533.111 321.487C533.879 315.788 528.871 305.189 527.542 298.255C525.476 290.395 528.581 273.922 525.604 267.027C517.136 247.406 498.202 229.153 485.993 211.573C479.761 202.599 476.014 197.062 471.285 188.015Z"/><path fill="#5D5F2B" transform="scale(0.127534 0.127534)" d="M484.319 134.226C505.149 151.328 527.158 173.948 545.741 193.517C561.001 209.588 576.793 226.811 589.998 244.551C583.705 252.219 580.666 256.108 578.926 266.328C574.304 266.666 572.025 267.026 567.486 268C556.118 252.534 538.254 233.907 525.417 218.898L524.002 216.301C521.492 217.994 520.457 218.385 519.215 221.144C516.818 218.048 514.489 214.303 512.324 210.996L508.991 206.535C512.218 206.909 514.978 208.788 517.895 210.308C513.514 201.419 482.985 157.571 476.282 151.637C479.007 145.972 481.994 140.032 484.319 134.226Z"/><path fill="#81793A" transform="scale(0.127534 0.127534)" d="M512.324 210.996C514.761 211.003 514.662 210.579 516.098 211.77L516.198 213.975C518.347 214.773 518.721 214.315 520.688 213.222C522.474 213.997 522.764 214.686 524.002 216.301C521.492 217.994 520.457 218.385 519.215 221.144C516.818 218.048 514.489 214.303 512.324 210.996Z"/><path fill="#5D4827" transform="scale(0.127534 0.127534)" d="M524.002 216.301L525.417 218.898L524.229 227.499L519.215 221.144C520.457 218.385 521.492 217.994 524.002 216.301Z"/><path fill="#DCD195" transform="scale(0.127534 0.127534)" d="M590.347 219.18C602.1 218.901 606.412 222.502 615.94 228.867C612.263 230.095 608.038 232.004 604.416 233.531C601.411 235.346 598.658 237.504 595.855 239.616C591.869 232.423 588.9 228.216 583.941 221.747L590.347 219.18Z"/><defs><linearGradient id="gradient_2" gradientUnits="userSpaceOnUse" x1="219.63104" y1="298.71329" x2="361.59442" y2="24.202999"><stop offset="0" stop-color="#312D15"/><stop offset="1" stop-color="#293619"/></linearGradient></defs><path fill="url(#gradient_2)" transform="scale(0.127534 0.127534)" d="M175.922 60.3725C166.46 50.17 173.487 40.9714 184.658 38.2151C200.406 34.3294 218.083 49.5565 231.047 57.3101C238.335 57.8697 251.533 55.4296 261.99 55.6983C291.747 54.9927 321.318 55.2657 351.079 55.5918C367.501 55.7717 386.855 54.6918 402.788 55.5175C409.169 61.6405 414.919 70.3889 421.517 75.1725C437.871 75.4294 443.046 72.769 457.139 71.9293C462.895 71.601 463.214 70.1882 468.346 68.906C474.93 69.2963 476.046 70.2526 480.457 75.194L480.56 75.7273C482.286 81.365 484.128 87.142 484.933 92.9934C480.554 94.5842 480.094 94.9896 477.63 98.9531C475.403 123.723 481.168 125.948 468.913 150.481C466.822 154.744 463.885 152.036 464.784 157.284C465.393 160.632 466.256 164.325 465.971 167.671C446.734 200.032 415.496 223.494 379.049 232.955C352.44 239.936 321.473 245.008 294.219 239.546C275.527 233.21 270.418 230.721 253.777 220.027C251.844 220.797 250.056 221.185 248.988 222.834C246.864 233.541 252.962 263.325 237.973 266.612C237.028 270.444 235.784 276.174 234.619 279.801C239.818 284.619 245.783 289.66 248.352 296.432C248.85 300.146 249.195 302.882 250.127 306.492C247.886 309.873 247.109 311.197 243.609 313.446C242.413 309.261 241.178 305.087 239.904 300.924C237.329 292.771 233.191 287.679 225.41 284.028C213.412 278.398 200.971 275.59 188.221 279.726C185.896 275.278 177.781 279.087 175.326 276.324C175.363 274.081 176.964 272.265 178.279 270.286C182.511 269.298 185.906 269.334 190.207 269.202C191.753 242.08 207.519 208.162 211.792 178.654C210.008 175.498 208.264 172.319 206.561 169.118C201.297 159.162 196.608 149.098 193.512 138.26C187.023 115.541 178.046 92.7735 185.309 69.2088C182.29 66.2401 179.183 63.0445 175.922 60.3725Z"/><path fill="#A49853" transform="scale(0.127534 0.127534)" d="M468.346 68.906C474.93 69.2963 476.046 70.2526 480.457 75.194L480.56 75.7273C482.286 81.365 484.128 87.142 484.933 92.9934C480.554 94.5842 480.094 94.9896 477.63 98.9531C475.403 123.723 481.168 125.948 468.913 150.481L467.654 150.105C466.151 147.071 466.979 135.448 467.117 131.619C469.32 111.273 470.794 108.37 464.441 86.7576C462.934 80.7722 461.124 76.6054 457.139 71.9293C462.895 71.601 463.214 70.1882 468.346 68.906Z"/><path fill="#A49853" transform="scale(0.127534 0.127534)" d="M457.139 71.9293C462.895 71.601 463.214 70.1882 468.346 68.906C466.53 70.8067 464.824 72.6218 462.882 74.399L468.344 77.3184C469.134 77.6432 471.236 78.5934 471.94 78.6464C471.218 80.4503 470.835 80.9298 471.14 82.7524C471.611 83.5782 471.525 84.6091 470.922 85.3447C470.319 86.0803 469.325 86.3683 468.423 86.069C466.45 86.0798 466.197 85.9917 464.441 86.7576C462.934 80.7722 461.124 76.6054 457.139 71.9293Z"/><path fill="#81793A" transform="scale(0.127534 0.127534)" d="M468.423 86.069C467.451 85.7466 466.81 84.8198 466.851 83.7969C466.893 82.774 467.607 81.9022 468.602 81.6599C469.597 81.4176 470.632 81.8632 471.14 82.7524C471.611 83.5782 471.525 84.6091 470.922 85.3447C470.319 86.0803 469.325 86.3683 468.423 86.069Z"/><path fill="#443418" transform="scale(0.127534 0.127534)" d="M468.346 68.906C474.93 69.2963 476.046 70.2526 480.457 75.194C479.608 77.5257 479.899 77.9482 478.12 79.2119C474.166 79.3688 474.375 77.1278 468.344 77.3184L462.882 74.399C464.824 72.6218 466.53 70.8067 468.346 68.906Z"/><path fill="#5D5F2B" transform="scale(0.127534 0.127534)" d="M480.457 75.194L480.56 75.7273C482.286 81.365 484.128 87.142 484.933 92.9934C480.554 94.5842 480.094 94.9896 477.63 98.9531C477.492 90.8112 481.144 81.9865 471.94 78.6464C471.236 78.5934 469.134 77.6432 468.344 77.3184C474.375 77.1278 474.166 79.3688 478.12 79.2119C479.899 77.9482 479.608 77.5257 480.457 75.194Z"/><path fill="#DCD195" transform="scale(0.127534 0.127534)" d="M237.973 266.612C239.22 258.07 241.094 220.004 248.578 216.469C250.46 216.96 252.204 218.719 253.777 220.027C251.844 220.797 250.056 221.185 248.988 222.834C246.864 233.541 252.962 263.325 237.973 266.612Z"/><path fill="#44491F" transform="scale(0.127534 0.127534)" d="M457.996 155.107C459.574 148.286 462.751 136.776 467.117 131.619C466.979 135.448 466.151 147.071 467.654 150.105L468.913 150.481C466.822 154.744 463.885 152.036 464.784 157.284C462.559 156.058 460.448 155.686 457.996 155.107Z"/><path fill="#81793A" transform="scale(0.127534 0.127534)" d="M231.047 57.3101C238.335 57.8697 251.533 55.4296 261.99 55.6983C253.731 60.4355 238.627 66.7975 231.047 57.3101Z"/><path fill="#5D5F2B" transform="scale(0.127534 0.127534)" d="M218.571 187.869C224.081 191.098 236.601 204.869 241.581 210.039C235.658 231.314 231.364 253.009 228.737 274.936C227.132 273.475 225.416 272.293 223.663 271.016C216.194 268.39 204.924 268.847 196.751 268.85C197.447 267.471 198.877 264.601 199.209 263.129C204.889 237.941 211.045 212.563 218.571 187.869Z"/><path fill="#A49853" transform="scale(0.127534 0.127534)" d="M379.477 66.9488C384.507 67.4055 393.409 68.1077 394.708 74.0765C393.86 77.507 391.641 78.4452 388.668 80.2633C378.931 81.1443 366.589 75.8149 379.477 66.9488Z"/><path fill="#5D5F2B" transform="scale(0.127534 0.127534)" d="M206.473 948.433C246.971 922.758 288.566 898.927 335.198 886.382C338.577 885.488 341.945 883.954 345.274 882.984C367.274 876.569 389.985 871.729 412.344 866.511C425.409 863.461 439.976 864.33 453.668 860.845C447.905 870.313 442.648 872.658 439.429 883.815C442.9 889.42 445.669 894.15 450.604 898.71C454.977 902.845 461.058 906.171 464.605 911.083C466.783 914.098 468.366 918.025 470.29 921.26C485.542 946.897 501.112 972.704 521.248 994.871C529.806 1004.29 538.343 1011.56 548.345 1019.22C520.03 1023.38 442.749 1022.59 418.153 1011.1C404.711 1004.82 389.546 990.801 381.423 978.412C378.132 973.394 375.666 967.786 373.436 962.228C371.729 957.974 366.791 938.061 364.802 936.824C359.321 939.496 362.453 961.951 362.074 967.973C359.899 1002.51 340.766 993.452 317.602 986.726C297.427 980.869 261.443 978.289 241.68 987.441L241.481 986.566C235.304 973.375 216.078 958.445 206.473 948.433Z"/><defs><linearGradient id="gradient_3" gradientUnits="userSpaceOnUse" x1="270.89697" y1="954.40448" x2="409.51746" y2="698.28143"><stop offset="0" stop-color="#4B4D22"/><stop offset="1" stop-color="#646730"/></linearGradient></defs><path fill="url(#gradient_3)" transform="scale(0.127534 0.127534)" d="M171.722 794.299C197.384 796.165 206.98 793.429 232.499 789.405C250.457 786.479 268.442 783.728 286.454 781.153C306.393 778.461 325.667 778.734 345.69 777.342C360.393 776.32 375.913 773.037 390.329 771.94C423.534 769.411 458.702 768.88 491.94 768.889C504.561 768.892 536.346 769.708 548.459 771.891C541.572 782.551 532.916 792.347 527.903 803.723C529.995 804.432 532.224 805.466 534.313 805.179L535.105 804.672L535.502 805.315C537.049 806.488 544.075 806.835 547.118 807.381C548.487 804.841 548.76 803.492 551.362 801.974C550.226 804.701 549.452 806.493 548.041 809.086C538.444 807.158 515.934 807.548 506.881 810.497C501.437 816.625 496.294 821.916 489.152 826.213C471.321 826.185 456.015 828.348 438.351 830.417C423.391 832.169 409.229 833.45 394.339 836.397C380.42 839.152 366.593 842.822 352.889 846.517C323.717 854.383 289.029 862.696 263.67 879.255C265.207 874.107 268.427 863.171 267.096 858.206L266.302 857.473C261.341 860.095 261.891 875.802 255.266 878.982C250.877 881.089 246.243 879.165 243.448 882.856C243.665 884.416 243.751 884.934 243.682 886.493C241.387 888.741 231.088 894.372 227.919 896.305C217.181 902.851 207.912 908.362 198.584 916.93C195.395 913.921 190.816 909.736 189.057 905.797C177.293 879.441 172.343 840.701 171.532 812.706C171.344 806.57 171.407 800.429 171.722 794.299Z"/><path fill="#443418" transform="scale(0.127534 0.127534)" d="M243.916 797.581C244.259 797.719 245.219 798.363 245.589 798.596L245.8 799.777C243.639 804.014 237.372 812.799 234.338 817.324C226.19 829.626 217.853 841.801 209.332 853.847C208.787 853.76 208.358 853.458 207.823 853.182C205.112 844.534 237.074 804.501 243.916 797.581Z"/><path fill="#443418" transform="scale(0.127534 0.127534)" d="M273.986 853.021C279.262 853.89 283.858 860.231 286.421 864.488C279.9 862.549 276.273 859.65 273.986 853.021Z"/><path fill="#DCD195" transform="scale(0.127534 0.127534)" d="M298.106 371.148C300.106 371.39 302.299 371.706 304.286 371.874C312.186 377.407 315.274 379.454 324.827 381.603C324.028 383.808 322.965 386.534 322.296 388.739L322.568 389.425C324.785 394.9 330.004 400.334 331.621 405.198C341.288 434.285 351.616 468.681 351.075 499.432C350.576 527.775 325.188 559.761 299.823 570.899C284.355 577.691 260.881 576.683 244.923 570.59C227.998 563.883 221.614 538.333 214.588 522.805C211.99 523.295 210.011 523.689 207.448 524.39C203.68 507.25 201.685 500.052 201.219 482.564C201.246 478.549 202.698 470.38 201.49 467.01L200.234 466.973C199.823 462.052 204.315 460.202 208.149 458.968C210.191 453.16 211.916 442.302 217.916 439.572C222.473 436.258 229.038 425.289 233.385 420.72C255.229 397.763 270.265 386.293 298.106 371.148Z"/><path fill="#5D4827" transform="scale(0.127534 0.127534)" d="M208.149 458.968C210.191 453.16 211.916 442.302 217.916 439.572C214.412 446.478 212.485 450.714 210.338 458.358C205.93 474.044 208.222 503.908 213.154 519.098C213.556 520.362 214.035 521.6 214.588 522.805C211.99 523.295 210.011 523.689 207.448 524.39C203.68 507.25 201.685 500.052 201.219 482.564C201.246 478.549 202.698 470.38 201.49 467.01L200.234 466.973C199.823 462.052 204.315 460.202 208.149 458.968Z"/><path fill="#443418" transform="scale(0.127534 0.127534)" d="M325.687 494.844C340.136 494.454 340.126 513.744 332.986 522.093C318.228 522.222 320.349 503.726 325.687 494.844Z"/><path fill="#5D5F2B" transform="scale(0.127534 0.127534)" d="M698.396 835.247C729.309 837.284 765.833 835.166 794.79 839.033C792.869 850.419 791.043 861.834 788.883 873.177C787.02 882.963 779.637 902.733 780.602 911.924C782.033 913.857 782.071 913.443 784.488 914.414C790.532 912.902 793.79 862.447 796.678 860.017C798.722 863.228 799.063 875.639 799.666 880.199C804.355 915.71 806.499 951.424 802.859 987.16C802.524 990.452 802.237 994.228 802.107 997.543C800.76 993.769 797.749 990.611 794.7 988.258C788.15 983.201 766.922 975.823 759.035 975.095C739.066 973.25 714.609 973.55 694.786 975.937C685.132 977.099 672.469 979.63 662.984 981.167C635.125 985.68 622.283 975.48 605.427 955.02C602.21 951.116 596.823 944.184 592.857 941.264L592.352 940.898C598.693 932.241 605.866 921.777 610.603 912.255C611.848 912.256 611.557 912.001 612.612 912.668C624.813 920.389 638.961 917.172 652.46 918.107C661.784 918.753 668.721 915.211 673.024 906.758C684.528 884.16 691.863 859.663 698.396 835.247Z"/><path fill="#A49853" transform="scale(0.127534 0.127534)" d="M382.891 304.256C389.726 296.992 412.372 286.475 422.774 283.196C443.99 276.508 467.98 266.281 489.734 274.074C512.142 285.107 515.393 303.881 524.666 324.918C525.698 327.258 529.059 330.03 529.871 332.077C534.988 344.974 544.258 359.337 548.719 372.205C544.013 369.805 538.708 363.14 534.762 359.005C507.058 329.977 460.33 347.362 441.875 377.536C435.3 388.286 434.163 403.666 431.937 415.895C425.202 460.592 417.802 501.665 384.544 534.869C380.55 538.858 370.34 551.767 365.274 553.595C365.014 550.587 365.269 550.665 363.711 548.71C363.999 546.308 371.851 536.038 373.843 532.367C377.58 525.478 381.003 519.086 382.272 511.098C381.916 510.354 381.5 507.655 381.319 506.684C380.927 504.244 381.266 496.96 381.299 494.137C381.404 488.3 381.122 482.461 380.454 476.661C378.179 457.454 372.534 437.161 371.487 417.968C370.144 393.363 372.298 371.499 366.145 347.181L368.397 347.118C369.582 345.26 369.877 341.517 370.246 339.244C372.545 325.105 373.454 315.686 382.891 304.256Z"/><defs><linearGradient id="gradient_4" gradientUnits="userSpaceOnUse" x1="395.58771" y1="431.79977" x2="361.76566" y2="428.90924"><stop offset="0" stop-color="#432C13"/><stop offset="1" stop-color="#56421F"/></linearGradient></defs><path fill="url(#gradient_4)" transform="scale(0.127534 0.127534)" d="M366.145 347.181L368.397 347.118L368.155 349.942L368.834 350.267C371.186 349.307 371.734 348.589 373.821 349.132C377.327 353.27 377.61 376.058 378.757 383.142C381.439 399.722 378.782 420.539 381.821 436.755C386.279 460.542 393.594 480.913 390.793 505.697C390.511 508.189 390.417 510.638 388.502 512.523C386.518 512.984 384.324 511.847 382.272 511.098C381.916 510.354 381.5 507.655 381.319 506.684C380.927 504.244 381.266 496.96 381.299 494.137C381.404 488.3 381.122 482.461 380.454 476.661C378.179 457.454 372.534 437.161 371.487 417.968C370.144 393.363 372.298 371.499 366.145 347.181Z"/><path fill="#DCD195" transform="scale(0.127534 0.127534)" d="M382.891 304.256C389.726 296.992 412.372 286.475 422.774 283.196C443.99 276.508 467.98 266.281 489.734 274.074C481.977 280.987 466.798 276.829 456.583 279.162C433.552 284.423 408.989 295.832 391.373 311.623C387.256 315.313 383.202 325.828 379.076 331.252C380.181 323.678 382.704 311.231 382.891 304.256Z"/><path fill="#A49853" transform="scale(0.127534 0.127534)" d="M446.775 333.494C438.487 339.962 432.514 341.042 423.126 335.084C414.981 329.915 404.156 316.132 410.926 306.379C414.655 301.007 422.084 300.828 427.94 300.007C437.225 302.135 448.702 323.206 446.775 333.494Z"/><path fill="#443418" transform="scale(0.127534 0.127534)" d="M427.94 300.007C437.225 302.135 448.702 323.206 446.775 333.494C442.387 330.042 432.919 309.494 428.457 304.125C427.49 302.962 427.679 301.395 427.94 300.007Z"/><path fill="#443418" transform="scale(0.127534 0.127534)" d="M468.133 291.705C473.065 295.415 477.624 315.765 479.556 322.563C472.429 315.437 469.099 310.008 467.211 299.89L468.133 291.705Z"/><path fill="#81793A" transform="scale(0.127534 0.127534)" d="M467.211 299.89C463.797 296.235 460.275 292.484 458.073 287.945C456.319 284.329 459.359 281.011 463.007 281.954C467.036 285.529 464.21 290.388 468.133 291.705L467.211 299.89Z"/><path fill="#81793A" transform="scale(0.127534 0.127534)" d="M168.151 730.511C179.49 732.122 194.667 730.25 206.565 729.479L271.055 725.118C318.653 722.06 366.413 722.562 413.935 726.622C418.936 727.022 431.895 727.159 436.048 728.169C458.862 733.718 482.062 732.529 504.854 737.307C514.048 739.235 523.847 741.676 532.605 744.627C538.209 746.516 543.757 749.431 549.497 751.469C552.985 750.63 553.857 748.268 555.77 745.148C559.141 748 560.643 749.192 562.827 753.114L561.293 755.054C557.765 759.017 555.77 761.69 552.686 765.998C537.645 760.43 520.799 761.515 504.607 761.256C465.891 760.728 427.171 761.949 388.565 764.915C373.293 766.066 358.151 767.99 342.94 769.238C326.328 770.601 309.76 770.747 293.14 772.92C273.998 775.417 254.903 778.26 235.865 781.448C213.791 785.21 193.701 789.34 171.241 790.308C171.294 770.465 172.076 749.977 168.151 730.511Z"/><path fill="#5D4827" transform="scale(0.127534 0.127534)" d="M555.77 745.148C559.141 748 560.643 749.192 562.827 753.114L561.293 755.054C557.733 753.743 553.185 751.884 549.497 751.469C552.985 750.63 553.857 748.268 555.77 745.148Z"/><path fill="#443418" transform="scale(0.127534 0.127534)" d="M193.117 743.516C205.725 744.063 215.128 746.976 227.449 749.048C234.43 750.221 242.288 750.546 249.283 752.077C250.654 752.377 250.799 753.26 251.388 754.433C251.437 756.559 251.463 756.645 250.471 758.465C248.736 759.371 247.093 759.025 245.065 758.914C229.625 757.673 211.433 750.35 195.941 750.47C194.198 750.484 194.998 751.982 192.927 753.181C190.819 752.364 190.388 752.269 188.947 750.563C187.845 746.4 189.845 745.337 193.117 743.516Z"/><path fill="#81793A" transform="scale(0.127534 0.127534)" d="M665.99 509.64C669.102 510.416 674.767 511.651 677.528 512.854C686.139 515.758 690.685 518.405 695.111 526.289L694.572 548.704C702.621 555.41 733.233 581.832 719.83 592.806L718.923 593.485C719.031 594.334 719.085 594.983 719.295 595.82C716.122 597.269 715.694 599.319 714.48 602.697C709.921 615.379 706.506 628.585 702.469 641.396C701.516 644.421 697.242 652.212 695.711 656.035C690.671 668.62 684.85 684.974 678.887 696.909C668.527 717.644 642.701 757.841 624.725 771.188C613.69 770.445 606.658 770.624 595.672 772.756C586.51 781.598 575.405 782.349 565.68 791.125C564.354 792.321 552.154 801.686 551.362 801.974C548.76 803.492 548.487 804.841 547.118 807.381C544.075 806.835 537.049 806.488 535.502 805.315L535.105 804.672C541.824 797.709 545.743 790.056 551.476 782.469C563.987 765.911 575.31 748.467 589.201 733.022C593.753 727.961 598.303 722.41 602.563 717.075C616.34 699.82 628.865 681.601 640.039 662.558C644.118 655.755 649.643 647.017 652.748 639.754C658.441 626.435 662.92 611.61 667.017 597.729C670.502 585.921 675.06 579.126 675.736 566.545C676.182 563.524 676.915 551.382 676.225 548.707C673.84 546.895 672.289 544.615 670.461 542.241C669.302 538.207 667.797 534.041 665.889 530.305L665.284 527.937C663.157 524.089 660.917 519.297 658.789 515.263C661.273 514.663 661.855 514.303 663.88 515.544C664.814 516.118 665.711 516.748 666.568 517.431L666.864 516.266C666.331 514.454 666.177 511.596 665.99 509.64Z"/><path fill="#443418" transform="scale(0.127534 0.127534)" d="M665.99 509.64C669.102 510.416 674.767 511.651 677.528 512.854C686.139 515.758 690.685 518.405 695.111 526.289L694.572 548.704C702.621 555.41 733.233 581.832 719.83 592.806C717.585 590.741 715.892 587.357 714.332 584.684C707.526 573.029 703.828 566.698 692.147 559.458C690.797 572.389 688.618 585.22 685.622 597.871C684.231 603.659 675.724 630.715 675.785 633.513C677.103 634.218 677.304 634.219 678.303 635.373C678.639 640.393 670.391 663.919 663.935 661.666C662.909 659.904 662.819 656.813 663.305 654.864C670.654 625.389 679.556 596.009 685.484 566.218C687.76 554.782 687.41 540.716 686.743 529.152C682.992 524.695 679.642 523.185 675.493 519.475C673.62 518.504 672.167 517.394 670.21 517.72C669.512 519.062 669.688 520.071 670.108 521.784C667.522 521.978 667.598 521.56 665.744 522.999C665.177 525.141 665.264 525.675 665.284 527.937C663.157 524.089 660.917 519.297 658.789 515.263C661.273 514.663 661.855 514.303 663.88 515.544C664.814 516.118 665.711 516.748 666.568 517.431L666.864 516.266C666.331 514.454 666.177 511.596 665.99 509.64Z"/><path fill="#5D4827" transform="scale(0.127534 0.127534)" d="M665.99 509.64C669.102 510.416 674.767 511.651 677.528 512.854C674.336 513.233 670.718 512.02 668.553 512.844C667.51 514.395 667.862 514.317 667.759 516.525L668.144 516.581C670.508 516.9 672.445 516.166 674.32 517.34C674.689 517.99 675.195 518.813 675.493 519.475C673.62 518.504 672.167 517.394 670.21 517.72C669.512 519.062 669.688 520.071 670.108 521.784C667.522 521.978 667.598 521.56 665.744 522.999C665.177 525.141 665.264 525.675 665.284 527.937C663.157 524.089 660.917 519.297 658.789 515.263C661.273 514.663 661.855 514.303 663.88 515.544C664.814 516.118 665.711 516.748 666.568 517.431L666.864 516.266C666.331 514.454 666.177 511.596 665.99 509.64Z"/><path fill="#443418" transform="scale(0.127534 0.127534)" d="M665.284 527.937C665.264 525.675 665.177 525.141 665.744 522.999C667.598 521.56 667.522 521.978 670.108 521.784C672.402 524.002 675.25 526.611 677.375 528.919C679.149 536.763 679.774 540.984 676.225 548.707C673.84 546.895 672.289 544.615 670.461 542.241C669.302 538.207 667.797 534.041 665.889 530.305L665.284 527.937Z"/><path fill="#A49853" transform="scale(0.127534 0.127534)" d="M365.57 346.119L366.145 347.181C372.298 371.499 370.144 393.363 371.487 417.968C372.534 437.161 378.179 457.454 380.454 476.661C381.122 482.461 381.404 488.3 381.299 494.137C381.266 496.96 380.927 504.244 381.319 506.684C381.5 507.655 381.916 510.354 382.272 511.098C381.003 519.086 377.58 525.478 373.843 532.367C371.851 536.038 363.999 546.308 363.711 548.71C360.462 549.02 358.826 547.836 356.003 546.332C353.357 549.756 348.284 556.013 346.243 559.463C343.354 567.572 344.817 567.361 343.815 574.088L342.799 573.314C339.983 574.236 337.358 577.458 335.087 579.426C305.52 605.051 267.392 622.825 233.754 641.993C220.494 649.607 207.542 657.744 194.929 666.385C196.649 661.405 200.539 653.424 201.15 648.541C202.902 634.534 197.699 618.149 194.993 604.418C193.34 596.006 192.358 587.476 192.056 578.908C191.628 562.53 195.674 547.354 195.512 533.017C190.739 532.403 187.695 532.396 183.833 529.475C189.754 520.056 197.915 493.929 201.219 482.564C201.685 500.052 203.68 507.25 207.448 524.39C208.152 536.433 219.889 558.337 229.075 566.223C234.552 570.926 243.309 571.597 248.755 580.781C251.538 585.474 272.959 586.207 280.282 585.609C298.775 584.1 322.598 571.973 335.411 558C343.289 548.838 356.827 518.694 360.903 506.471C363.022 493.297 362.165 478.491 361.483 465.457C360.909 454.469 357.628 450.765 354.596 441.757C348.048 422.306 340.871 402.289 330.021 384.838C326.121 378.565 319.595 373.358 314.007 368.709C327.726 364.386 349.06 355.808 361.45 349.397C362.569 348.732 364.496 347.018 365.57 346.119Z"/><path fill="#5D4827" transform="scale(0.127534 0.127534)" d="M381.319 506.684C381.5 507.655 381.916 510.354 382.272 511.098C381.003 519.086 377.58 525.478 373.843 532.367C371.851 536.038 363.999 546.308 363.711 548.71C360.462 549.02 358.826 547.836 356.003 546.332C358.507 539.51 369.746 526.498 373.636 519.496C376.689 514.002 381.199 514.037 381.319 506.684Z"/><path fill="#443418" transform="scale(0.127534 0.127534)" d="M215.681 579.663C217.882 580.792 219.865 582.426 222.415 583.612C232.269 588.192 242.414 592.374 252.663 595.942C260.255 598.584 268.221 597.371 274.999 601.26C276.144 602.818 275.924 603.826 275.939 605.839C259.496 610.065 224.755 593.756 215.681 579.663Z"/><path fill="#81793A" transform="scale(0.127534 0.127534)" d="M211.452 587.81C214.607 588.723 219.083 594.686 222.284 597.46C228.334 602.703 231.013 603.189 236.677 606.198C244.984 610.613 268.411 608.806 272.941 610.752L273.254 611.796L272.154 613.625C267.212 614.906 263.219 614.979 258.129 614.96C245.224 614.911 210.706 604.109 211.452 587.81Z"/><path fill="#81793A" transform="scale(0.127534 0.127534)" d="M199.458 548.214C202.759 548.981 211.267 565.588 212.474 569.02C204.134 566.415 199.785 556.323 199.458 548.214Z"/><path fill="#A49853" transform="scale(0.127534 0.127534)" d="M188.221 279.726C200.971 275.59 213.412 278.398 225.41 284.028C233.191 287.679 237.329 292.771 239.904 300.924C241.178 305.087 242.413 309.261 243.609 313.446C246.744 323.743 251.554 340.19 244.832 349.947L241.27 341.295C243.062 337.832 245.867 332.336 243.794 328.528L242.67 328.461C240.31 330.682 239.84 333.649 238.832 336.855C235.546 337.183 233.556 337.495 230.919 339.812C237.94 353.758 241.466 369.352 233.554 383.748C230.511 381.146 226.29 386.318 223.989 388.512C218.957 387.199 215.785 387.296 211.132 386.357C209.582 386.045 202.983 381.489 200.962 380.602C192.081 376.705 180.877 379.063 172.934 383.823C162.106 390.312 155.386 400.317 145.05 407.43C139.932 410.951 128.616 411.932 124.946 414.679C113.913 403.034 107.537 391.599 106.042 375.307C104.219 355.447 116.95 329.848 129.618 314.944C144.635 295.95 155.583 288.57 178.045 280.154C179.457 279.768 186.243 279.798 188.221 279.726Z"/><path fill="#DCD195" transform="scale(0.127534 0.127534)" d="M178.045 280.154L183.542 280.598L183.535 281.403C175.287 287.296 165.527 291.306 156.991 296.91C151.091 300.785 137.555 314.11 131.813 316.207C130.065 315.874 130.77 316.285 129.618 314.944C144.635 295.95 155.583 288.57 178.045 280.154Z"/><path fill="#5D4827" transform="scale(0.127534 0.127534)" d="M212.098 314.186C218.82 318.611 224.268 321.986 230.121 327.589C233.24 330.574 235.968 334.069 238.832 336.855C235.546 337.183 233.556 337.495 230.919 339.812C222.686 329.287 216.765 325.581 205.655 318.897C207.75 316.795 209.599 315.763 212.098 314.186Z"/><path fill="#443418" transform="scale(0.127534 0.127534)" d="M205.655 318.897C201.879 317.511 194.579 315.495 193.86 311.077C197.176 305.531 208.363 311.911 212.098 314.186C209.599 315.763 207.75 316.795 205.655 318.897Z"/><path fill="#DCD195" transform="scale(0.127534 0.127534)" d="M175.922 60.3725C179.183 63.0445 182.29 66.2401 185.309 69.2088C178.046 92.7735 187.023 115.541 193.512 138.26C196.608 149.098 201.297 159.162 206.561 169.118C208.264 172.319 210.008 175.498 211.792 178.654C207.519 208.162 191.753 242.08 190.207 269.202C185.906 269.334 182.511 269.298 178.279 270.286C146.943 280.403 123.349 304.081 108.612 333.071C98.8776 352.22 92.5181 368.21 99.0958 390.307C103.379 404.696 116.799 421.056 130.003 428.345C135.31 431.274 145.864 431.835 152.248 433.358C150.745 445.69 149.754 468.098 166.838 470.029C169.07 470.281 172.886 469.742 175.17 469.419C171.991 471.551 167.794 474.539 164.544 476.363C161.117 478.946 157.071 481.844 153.863 484.614C142.564 472.918 144.771 461.765 134.392 451.892C128.97 446.734 112.703 446.939 104.737 443.316C96.1635 439.417 90.2287 434.547 83.4972 428.018C82.6294 396.586 83.7508 364.307 83.433 332.822C83.2948 319.135 102.866 305.437 111.477 295.964C114.373 292.778 120.212 289.117 122.347 284.818C128.096 268.274 127.771 249.676 145.161 239.818C147.188 238.668 149.223 237.88 151.6 238.616C160.203 245.639 150.664 262.956 146.477 270.118L154.752 267.871C164.037 262.043 162.193 245.457 165.485 235.427C171.502 217.095 181.544 196.88 183.669 177.784C185.158 164.409 170.167 143.254 164.518 130.944C160.567 122.146 157.599 112.939 155.666 103.49C152.436 86.9569 154.27 73.5828 169.04 63.3663L175.922 60.3725Z"/><path fill="#8DC544" transform="scale(0.127534 0.127534)" d="M83.4972 428.018C82.6294 396.586 83.7508 364.307 83.433 332.822C83.2948 319.135 102.866 305.437 111.477 295.964C114.373 292.778 120.212 289.117 122.347 284.818C128.096 268.274 127.771 249.676 145.161 239.818C147.188 238.668 149.223 237.88 151.6 238.616C160.203 245.639 150.664 262.956 146.477 270.118C138.793 279.07 132.028 288.957 124.958 298.486C111.615 316.47 96.0774 334.704 89.0087 356.277C86.0964 365.165 89.4569 373.454 91.9268 381.927C96.7778 399.481 102.009 414.172 116.41 426.38C125.212 433.727 134.797 440.082 144.992 445.33C145.399 462.071 145.142 473.152 164.544 476.363C161.117 478.946 157.071 481.844 153.863 484.614C142.564 472.918 144.771 461.765 134.392 451.892C128.97 446.734 112.703 446.939 104.737 443.316C96.1635 439.417 90.2287 434.547 83.4972 428.018Z"/><path fill="#8DC544" transform="scale(0.127534 0.127534)" d="M154.752 267.871C164.037 262.043 162.193 245.457 165.485 235.427C171.502 217.095 181.544 196.88 183.669 177.784C185.158 164.409 170.167 143.254 164.518 130.944C160.567 122.146 157.599 112.939 155.666 103.49C152.436 86.9569 154.27 73.5828 169.04 63.3663C169.767 74.0799 166.505 84.9005 169.209 95.5086C171.594 104.868 176.513 113.421 180.565 122.171C186.208 134.357 192.943 146.494 196.679 159.444C199.28 168.461 197.519 178.582 196.607 187.742C195.127 198.494 193.663 209.672 190.636 220.142C186.467 234.558 182.698 250.61 173.055 262.445C169.563 266.73 158.204 275.051 152.701 271.728C152.535 270.08 152.637 270.472 154.053 268.713C154.281 268.429 154.515 268.148 154.752 267.871Z"/><path fill="#A49853" transform="scale(0.127534 0.127534)" d="M72.0813 901.193C67.0711 892.689 58.3051 863.453 67.1827 856.845C73.7304 854.719 83.5011 864.202 88.5645 867.773C106.262 880.257 122.084 895.327 142.082 904.183C155.636 910.184 168.891 912.974 183.28 916.068C187.042 922.317 189.574 924.983 194.534 930.144C196.306 939.555 198.17 947.756 202.545 956.376C196.702 966.281 192.582 987.082 189.871 998.97L189.594 1000.6C187.114 1000.83 166.731 991.323 163.612 989.247C150.511 980.524 137.38 971.604 124.303 962.819C113.623 955.691 103.031 948.433 92.5286 941.047C85.9399 936.414 54.1347 914.457 62.7285 905.567C64.7864 905.361 66.4407 906.678 68.3507 907.774C69.8397 903.96 68.8256 904.008 72.0813 901.193Z"/><defs><linearGradient id="gradient_5" gradientUnits="userSpaceOnUse" x1="578.35736" y1="995.5202" x2="555.33545" y2="859.60315"><stop offset="0" stop-color="#41411A"/><stop offset="1" stop-color="#60662C"/></linearGradient></defs><path fill="url(#gradient_5)" transform="scale(0.127534 0.127534)" d="M640.323 850.082C640.905 850.777 641.512 851.428 641.985 852.193C640.073 857.955 637.695 863.207 634.566 868.423C630.989 874.385 606.871 906.322 609.493 910.919C609.767 911.399 610.238 911.854 610.603 912.255C605.866 921.777 598.693 932.241 592.352 940.898L591.713 942.953C582.633 955.973 576.079 964.794 565.545 976.969C555.148 988.986 554.686 994.396 540.573 1003.75C523.813 991.041 490.063 940.131 478.619 921.378C483.592 924.754 488.662 927.984 493.824 931.063C500.778 935.192 517.131 945.424 525.199 942.772C532.261 940.451 534.102 924.462 538.253 916.89C545.224 904.176 552.879 893.737 560.602 881.712C565.627 873.888 570.586 863.731 575.273 855.474L576.302 855.246C579.017 859.786 579.691 860.778 584.244 863.381C599.234 862.489 626.646 856.22 640.323 850.082Z"/><path fill="#81793A" transform="scale(0.127534 0.127534)" d="M180.583 515.056C181.289 520.254 182.149 524.466 183.833 529.475C187.695 532.396 190.739 532.403 195.512 533.017C195.674 547.354 191.628 562.53 192.056 578.908C192.358 587.476 193.34 596.006 194.993 604.418C197.699 618.149 202.902 634.534 201.15 648.541C200.539 653.424 196.649 661.405 194.929 666.385C185.773 674.946 174.935 684.445 168.684 695.34C168.785 697.872 169.051 701.397 168.693 703.81C168.141 701.497 167.633 693.923 167.406 691.385C163.579 648.704 163.37 605.194 169.928 562.764C172.28 547.544 172.715 529.007 180.583 515.056Z"/><path fill="#DCD195" transform="scale(0.127534 0.127534)" d="M124.946 414.679C128.616 411.932 139.932 410.951 145.05 407.43C155.386 400.317 162.106 390.312 172.934 383.823C180.877 379.063 192.081 376.705 200.962 380.602C202.983 381.489 209.582 386.045 211.132 386.357C215.785 387.296 218.957 387.199 223.989 388.512C226.29 386.318 230.511 381.146 233.554 383.748C229.124 391.522 214.243 408.943 203.251 402.598C197.594 399.333 195.256 389.366 186.15 392.061C175.862 394.704 157.378 410.62 152.038 419.378C151.439 420.351 150.888 421.353 150.387 422.38C141.054 421.092 131.191 421.288 124.946 414.679Z"/><path fill="#44491F" transform="scale(0.127534 0.127534)" d="M212.786 963.208C219.193 970.519 231.489 986.47 241.481 986.566L241.68 987.441C225.558 995.337 209.211 1000.65 197.188 1014.54C197.402 1011.2 197.904 1006.77 197.248 1003.59C197.309 1003.42 198.174 998.878 198.691 997.276C202.492 979.956 202.31 977.663 212.786 963.208Z"/><path fill="#DCD195" transform="scale(0.127534 0.127534)" d="M200.234 466.973L201.49 467.01C202.698 470.38 201.246 478.549 201.219 482.564C197.915 493.929 189.754 520.056 183.833 529.475C182.149 524.466 181.289 520.254 180.583 515.056C185.655 492.7 193.398 485.074 200.234 466.973Z"/><path fill="#DCD195" transform="scale(0.127534 0.127534)" d="M308.813 365.014C323.35 356.42 333.64 350.724 349.806 346.242C353.526 346.99 358.163 347.671 361.45 349.397C349.06 355.808 327.726 364.386 314.007 368.709L308.813 365.014Z"/><path fill="#DCD195" transform="scale(0.127534 0.127534)" d="M206.766 427.188C209.564 429.257 211.248 431.063 212.738 434.294C210.227 439.682 200.699 460.201 197.307 463.672C195.938 463.672 193.08 463.742 192.174 462.949C193.248 461.746 197.979 456.604 198.3 455.766C201.586 447.18 204.373 436.005 206.766 427.188Z"/><path fill="#5D4827" transform="scale(0.127534 0.127534)" d="M150.98 655.663L155.502 651.515C156.062 659.488 156.991 669.196 157.08 677.056C155.011 680.254 153.348 681.779 150.472 684.333C150.363 674.55 150.676 665.426 150.98 655.663Z"/><path fill="#A49853" transform="scale(0.127534 0.127534)" d="M349.806 346.242C356.542 343.485 358.822 342.424 364.568 337.627C364.877 340.451 365.156 343.311 365.57 346.119C364.496 347.018 362.569 348.732 361.45 349.397C358.163 347.671 353.526 346.99 349.806 346.242Z"/><path fill="#DCD195" transform="scale(0.127534 0.127534)" d="M220.832 408.328C220.384 413.704 212.008 418.546 208.672 422.795C208.431 422.966 208.19 423.136 207.949 423.306C209.3 419.669 209.321 417.307 209.425 413.471C213.984 412.174 216.741 410.659 220.832 408.328Z"/><path fill="#44491F" transform="scale(0.127534 0.127534)" d="M640.323 850.082C643.061 847.748 644.995 845.639 648.662 845.535C653.272 847.692 651.362 851.357 650.395 855.481L650.295 855.894C648.812 853.829 647.598 851.549 645.373 850.633C643.231 850.845 643.938 850.734 641.985 852.193C641.512 851.428 640.905 850.777 640.323 850.082Z"/><path fill="#5D4827" transform="scale(0.127534 0.127534)" d="M168.936 707.925C170.233 712.914 171.82 717.534 171.946 722.644C176.574 722.695 181.682 722.618 186.24 723.157C182.634 723.666 171.603 723.267 167.437 723.205C167.942 718.053 168.175 713.077 168.936 707.925Z"/><path fill="#44491F" transform="scale(0.127534 0.127534)" d="M575.273 855.474C576.088 851.992 576.025 849.329 579.598 847.973L580.773 848.347C581.195 850.364 581.27 849.391 580.444 851.36C578.782 852.575 577.153 853.453 576.302 855.246L575.273 855.474Z"/><path fill="#5D5F2B" transform="scale(0.127534 0.127534)" d="M718.608 613.01C728.501 621.881 732.928 642.737 738.207 655.026C745.304 671.55 753.699 686.95 759.691 703.901C769.316 731.127 777.988 757.885 784.886 785.927C772.827 783.145 757.23 783.331 744.711 783.223C743.626 780.487 743.14 777.863 740.123 777.029L739.361 777.913C738.982 780.079 739.83 781.665 740.598 783.793C730.202 783.859 719.822 784.511 709.447 785.167C701.084 785.635 695.714 785.844 687.537 788.049C674.58 782.299 667.591 781.539 653.839 781.573C647.252 775.414 645.091 773.106 636.273 770.738C652.46 755.209 661.014 741.556 673.135 723.283C686.931 702.485 693.749 682.416 702.756 659.227C708.793 643.683 714.7 629.404 718.608 613.01Z"/><path fill="#44491F" transform="scale(0.127534 0.127534)" d="M449.014 876.855C451.896 868.648 501.582 824.145 511.93 818.919C515.908 816.91 540.118 816.075 546.563 816.272C534.371 822.904 527.667 824.735 520.417 837.348C538.453 827.559 540.642 822.321 561.858 824.175C568.789 829.725 571.982 834.394 574.432 842.799C573.197 844.628 571.455 846.844 570.112 848.659C563.03 865.526 559.392 868.539 549.462 883.097C539.694 897.415 527.487 917.975 521.638 934.304C513.841 931.249 506.322 928.002 498.994 923.936C492.119 920.121 447.786 891.069 445.543 886.121C444.911 884.728 445.179 883.211 445.738 881.839C446.45 880.094 447.756 878.241 449.014 876.855Z"/><path fill="#5D5F2B" transform="scale(0.127534 0.127534)" d="M501.242 905.952C521.088 893.851 537.051 870.805 556.202 857.24C559.256 855.077 566.637 847.776 570.112 848.659C563.03 865.526 559.392 868.539 549.462 883.097C539.694 897.415 527.487 917.975 521.638 934.304C513.841 931.249 506.322 928.002 498.994 923.936C492.119 920.121 447.786 891.069 445.543 886.121C444.911 884.728 445.179 883.211 445.738 881.839C446.45 880.094 447.756 878.241 449.014 876.855L450.338 877.56C451.199 879.359 450.491 881.77 450.156 883.899L457.12 882.414C472.399 887.924 484.563 898.888 501.242 905.952Z"/><path fill="#44491F" transform="scale(0.127534 0.127534)" d="M586.281 786.61C602.974 778.282 609.049 780.673 626.945 781.843C628.999 788.138 631.934 804.765 633.444 807.677L636.485 804.809C637.82 794.105 636.342 790.806 633.207 780.511C636.683 781.287 640.218 782.301 643.664 783.239C646.315 786.001 648.203 789.059 649.898 792.46C651.832 795.172 653.988 798.358 656.044 800.926C651.824 813.631 648.835 827.157 644.849 838.855C630.333 846.042 601.273 853.054 585.239 854.134C585.277 849.563 585.494 846.646 584.302 842.161C579.856 824.631 569.203 817.33 554.928 808.825C563.544 801.918 571.942 795.488 581.725 790.315C591.352 795.448 595.893 801.281 603.556 808.564C604.724 809.673 605.528 810.036 607.009 810.189C607.378 808.107 605.535 805.412 604.613 803.588C600.241 794.935 594.506 791.061 586.281 786.61Z"/><path fill="#5D5F2B" transform="scale(0.127534 0.127534)" d="M633.207 780.511C636.683 781.287 640.218 782.301 643.664 783.239C646.315 786.001 648.203 789.059 649.898 792.46C651.832 795.172 653.988 798.358 656.044 800.926C651.824 813.631 648.835 827.157 644.849 838.855C630.333 846.042 601.273 853.054 585.239 854.134C585.277 849.563 585.494 846.646 584.302 842.161C586.184 839.561 604.792 838.06 611.578 833.518C623.544 825.51 624.983 816.777 632.975 808.173L633.444 807.677L636.485 804.809C637.82 794.105 636.342 790.806 633.207 780.511Z"/><path fill="#44491F" transform="scale(0.127534 0.127534)" d="M633.207 780.511C636.683 781.287 640.218 782.301 643.664 783.239C646.315 786.001 648.203 789.059 649.898 792.46C645.078 795.915 641.234 801.082 636.485 804.809C637.82 794.105 636.342 790.806 633.207 780.511Z"/><path fill="#44491F" transform="scale(0.127534 0.127534)" d="M658.837 789.72C674.903 792.08 683.124 794.962 697.138 803.652C693.741 824.33 685.212 851.277 678.151 870.86C676.613 875.125 673.958 883.2 671.808 886.814C661.819 909.748 662.628 911.078 635.766 909.13C631.1 908.792 620.053 909.653 617.232 905.743C617.977 900.995 635.782 873.032 639.154 867.503C640.232 865.009 644.029 860.058 645.828 857.499C647.647 859.834 650.574 863.962 652.834 865.584C658.913 865.733 658.335 846.217 655.72 841.648C658.138 832.794 659.73 824.45 661.429 815.44L661.815 816.136C664.804 821.589 667.785 831.478 671.568 835.091L672.794 835.051C676.895 829.849 666.334 813.713 662.964 808.552C662.696 800.986 662.172 796.786 658.837 789.72Z"/><path fill="#5D5F2B" transform="scale(0.127534 0.127534)" d="M639.154 867.503L640.55 868.178C642.151 874.579 622.539 899.343 649.834 895.086C655.134 894.26 669.035 885.927 671.808 886.814C661.819 909.748 662.628 911.078 635.766 909.13C631.1 908.792 620.053 909.653 617.232 905.743C617.977 900.995 635.782 873.032 639.154 867.503Z"/><path fill="#44491F" transform="scale(0.127534 0.127534)" d="M697.747 792.892C715.186 791.294 781.48 787.918 794.283 798.215C797.243 800.595 797.925 805.495 798.141 809.057C798.271 811.195 798.433 813.377 798.293 815.514C798.082 821.646 797.622 825.019 796.682 831.002C789.379 830.76 782.382 828.146 773.442 827.815C749.39 826.928 725.393 827.207 701.338 827.275C703.781 820.357 704.767 815.833 706.029 808.75C706.645 799.463 705.46 798.055 697.747 792.892Z"/><path fill="#5D5F2B" transform="scale(0.127534 0.127534)" d="M706.029 808.75C725.659 809.225 745.266 810.373 764.817 812.192C775.387 813.084 787.951 813.92 798.293 815.514C798.082 821.646 797.622 825.019 796.682 831.002C789.379 830.76 782.382 828.146 773.442 827.815C749.39 826.928 725.393 827.207 701.338 827.275C703.781 820.357 704.767 815.833 706.029 808.75Z"/><path fill="#5D5F2B" transform="scale(0.127534 0.127534)" d="M181.691 403.567C190.667 403.356 194.479 407.191 200.946 412.684C199.772 423.492 195.816 442.171 191.688 452.203C185.864 456.531 180.761 457.838 173.932 459.473C169.844 460.025 165.75 460.536 161.651 461.006C159.136 449.762 157.873 436.347 156.484 424.786C164.45 417.891 172.879 409 181.691 403.567Z"/><path fill="#44491F" transform="scale(0.127534 0.127534)" d="M113.301 596.374C114.545 601.204 116.857 611.492 122.282 613.122C129.444 612.213 147.482 595.818 153.764 590.408L154.185 609.45C147.836 618.648 128.357 633.551 127.434 641.574C127.879 643.662 129.096 644.554 130.612 646.133C124.391 649.415 121.035 650.319 113.979 651.158C109.055 640.395 104.535 615.888 102.89 604.177C106.673 600.981 109.262 599.137 113.301 596.374Z"/><path fill="#A49853" transform="scale(0.127534 0.127534)" d="M130.612 646.133C140.015 640.102 146.624 632.898 154.954 625.629C154.668 630.67 154.379 635.452 154.363 640.509C149.971 646.741 145.501 652.891 141.102 659.107C138.089 663.365 135.446 668.353 132.328 672.592C122.084 666.253 118.867 662.187 113.979 651.158C121.035 650.319 124.391 649.415 130.612 646.133Z"/><path fill="#44491F" transform="scale(0.127534 0.127534)" d="M161.157 555.48L161.472 555.766C162.498 558.036 159.915 575.027 159.414 578.815C149.969 584.884 140.555 591.211 132.15 598.681C129.792 600.776 127.075 603.314 124.44 605.003L123.488 604.739L123.042 602.843C122.859 600.392 122.943 598.575 121.806 596.421C120.529 595.778 120.138 595.549 118.96 594.739C119.684 590.943 155.452 560.507 161.157 555.48Z"/><path fill="#44491F" transform="scale(0.127534 0.127534)" d="M115.193 586.221C111.391 574.337 111.971 571.531 123.167 565.204C129.837 561.433 136.911 555.829 144.417 553.865C141.229 558.205 140.971 559.097 141.909 564.536C131.08 570.041 124.545 578.188 115.193 586.221Z"/><path fill="#5D5F2B" transform="scale(0.127534 0.127534)" d="M156.577 691.226C162.719 695.408 163.101 719.054 162.33 726.373L161.596 726.455L159.156 724.23C155.595 720.723 152.504 716.46 149.498 712.462C152.092 705.784 154.246 698.138 156.577 691.226Z"/><path fill="#A49853" transform="scale(0.127534 0.127534)" d="M144.417 553.865C148.674 551.13 157.77 544.476 162.887 545.366C163.416 546.002 164.014 546.369 163.746 547.089C161.586 552.896 146.215 561.708 141.909 564.536C140.971 559.097 141.229 558.205 144.417 553.865Z"/><path fill="#8DC544" transform="scale(0.127534 0.127534)" d="M629.02 127.35C629.908 127.438 630.792 127.555 631.673 127.698C639.876 129.085 646.913 139.3 650.279 146.161C653.091 151.891 656.171 158.219 649.765 162.552C629.7 164.787 619.302 133.779 629.02 127.35Z"/></svg>