<svg xmlns="http://www.w3.org/2000/svg" width="640" height="640" viewBox="0 0 640 640">
  <rect width="640" height="640" rx="40" fill="#f8f4ee"/>
  <rect x="48" y="48" width="544" height="544" rx="28" fill="#ffffff" stroke="#d6c7b3" stroke-width="12"/>
  <g fill="#1f1f1f">
    <rect x="96" y="96" width="112" height="112" rx="12"/>
    <rect x="120" y="120" width="64" height="64" rx="8" fill="#fff"/>
    <rect x="432" y="96" width="112" height="112" rx="12"/>
    <rect x="456" y="120" width="64" height="64" rx="8" fill="#fff"/>
    <rect x="96" y="432" width="112" height="112" rx="12"/>
    <rect x="120" y="456" width="64" height="64" rx="8" fill="#fff"/>
    <rect x="272" y="96" width="24" height="24" rx="4"/>
    <rect x="320" y="96" width="24" height="24" rx="4"/>
    <rect x="272" y="144" width="24" height="24" rx="4"/>
    <rect x="344" y="168" width="24" height="24" rx="4"/>
    <rect x="248" y="216" width="24" height="24" rx="4"/>
    <rect x="296" y="216" width="24" height="24" rx="4"/>
    <rect x="344" y="240" width="24" height="24" rx="4"/>
    <rect x="392" y="240" width="24" height="24" rx="4"/>
    <rect x="248" y="288" width="24" height="24" rx="4"/>
    <rect x="320" y="288" width="24" height="24" rx="4"/>
    <rect x="368" y="312" width="24" height="24" rx="4"/>
    <rect x="416" y="312" width="24" height="24" rx="4"/>
    <rect x="248" y="360" width="24" height="24" rx="4"/>
    <rect x="296" y="384" width="24" height="24" rx="4"/>
    <rect x="344" y="384" width="24" height="24" rx="4"/>
    <rect x="392" y="408" width="24" height="24" rx="4"/>
    <rect x="272" y="456" width="24" height="24" rx="4"/>
    <rect x="320" y="456" width="24" height="24" rx="4"/>
    <rect x="368" y="480" width="24" height="24" rx="4"/>
    <rect x="416" y="456" width="24" height="24" rx="4"/>
    <rect x="464" y="432" width="24" height="24" rx="4"/>
    <rect x="512" y="480" width="24" height="24" rx="4"/>
  </g>
  <text x="320" y="592" text-anchor="middle" font-size="28" font-family="sans-serif" fill="#8b6b4a">
    请替换为真实支付宝收款码
  </text>
</svg>
